<svg width="205" height="156" viewBox="0 0 205 156" fill="none" xmlns="http://www.w3.org/2000/svg">
<path d="M102.5 155.319C158.776 155.319 204.397 152.433 204.397 148.872C204.397 145.311 158.776 142.425 102.5 142.425C46.2241 142.425 0.603516 145.311 0.603516 148.872C0.603516 152.433 46.2241 155.319 102.5 155.319Z" fill="#CAE6FE"/>
<path d="M18.1998 32.367C18.1998 33.7633 17.0636 34.8995 15.6673 34.8995C14.2709 34.8995 13.1348 33.7633 13.1348 32.367C13.1348 30.9706 14.2709 29.8345 15.6673 29.8345C17.0636 29.8345 18.1998 30.9706 18.1998 32.367ZM17.4053 32.367C17.4053 31.4086 16.6257 30.6289 15.6673 30.6289C14.7089 30.6289 13.9292 31.4086 13.9292 32.367C13.9292 33.3254 14.7089 34.105 15.6673 34.105C16.6257 34.105 17.4053 33.3258 17.4053 32.367Z" fill="#009EF3"/>
<path d="M28.5382 28.9505C28.5382 30.3468 27.402 31.483 26.0056 31.483C24.6093 31.483 23.4731 30.3468 23.4731 28.9505C23.4731 27.5541 24.6093 26.418 26.0056 26.418C27.402 26.4175 28.5382 27.5537 28.5382 28.9505ZM27.7437 28.9505C27.7437 27.9921 26.964 27.2124 26.0056 27.2124C25.0473 27.2124 24.2676 27.9921 24.2676 28.9505C24.2676 29.9089 25.0473 30.6885 26.0056 30.6885C26.964 30.6885 27.7437 29.9089 27.7437 28.9505Z" fill="#2A365C"/>
<path d="M28.8618 18.0781C28.6426 18.0781 28.4644 18.2559 28.4644 18.4756V20.2275C28.4644 20.4471 28.6421 20.6249 28.8618 20.6249C29.0815 20.6249 29.2592 20.4471 29.2592 20.2275V18.4756C29.2592 18.2559 29.081 18.0781 28.8618 18.0781Z" fill="#007CE6"/>
<path d="M28.8618 15.0112C28.6426 15.0112 28.4644 15.189 28.4644 15.4087V17.1606C28.4644 17.3798 28.6421 17.558 28.8618 17.558C29.0815 17.558 29.2592 17.3802 29.2592 17.1606V15.4087C29.2592 15.1895 29.081 15.0112 28.8618 15.0112Z" fill="#007CE6"/>
<path d="M31.3207 17.4209H29.7471C29.5278 17.4209 29.3496 17.5987 29.3496 17.8183C29.3496 18.0376 29.5274 18.2158 29.7471 18.2158H31.3207C31.5399 18.2158 31.7182 18.038 31.7182 17.8183C31.7177 17.5987 31.5399 17.4209 31.3207 17.4209Z" fill="#007CE6"/>
<path d="M27.9765 17.4209H26.4028C26.1836 17.4209 26.0054 17.5987 26.0054 17.8183C26.0054 18.0376 26.1831 18.2158 26.4028 18.2158H27.9765C28.1957 18.2158 28.3739 18.038 28.3739 17.8183C28.3735 17.5987 28.1957 17.4209 27.9765 17.4209Z" fill="#007CE6"/>
<path d="M18.1264 20.8843C17.9072 20.8843 17.729 21.062 17.729 21.2817V23.0336C17.729 23.2533 17.9068 23.4311 18.1264 23.4311C18.3457 23.4311 18.5239 23.2533 18.5239 23.0336V21.2817C18.5239 21.062 18.3461 20.8843 18.1264 20.8843Z" fill="#61B3FF"/>
<path d="M18.1264 17.8184C17.9072 17.8184 17.729 17.9961 17.729 18.2158V19.9677C17.729 20.1874 17.9068 20.3651 18.1264 20.3651C18.3457 20.3651 18.5239 20.1874 18.5239 19.9677V18.2158C18.5239 17.9961 18.3461 17.8184 18.1264 17.8184Z" fill="#61B3FF"/>
<path d="M20.5859 20.2266H19.0122C18.793 20.2266 18.6147 20.4043 18.6147 20.624C18.6147 20.8437 18.7925 21.0215 19.0122 21.0215H20.5859C20.8051 21.0215 20.9828 20.8437 20.9828 20.624C20.9828 20.4048 20.8051 20.2266 20.5859 20.2266Z" fill="#61B3FF"/>
<path d="M17.2411 20.2266H15.6675C15.4482 20.2266 15.27 20.4043 15.27 20.624C15.27 20.8437 15.4478 21.0215 15.6675 21.0215H17.2411C17.4603 21.0215 17.6386 20.8437 17.6386 20.624C17.6381 20.4048 17.4603 20.2266 17.2411 20.2266Z" fill="#61B3FF"/>
<path d="M26.2883 45.6888V54.1461C26.2883 54.6877 25.8503 55.1225 25.3124 55.1225H16.8514C16.4802 55.1225 16.1597 54.9185 15.9925 54.6145C15.9759 54.5809 15.9589 54.5477 15.9492 54.5141C15.9326 54.4639 15.9156 54.4137 15.899 54.3603C15.899 54.3538 15.8958 54.3502 15.8958 54.3437C15.8958 54.3373 15.8926 54.3271 15.8926 54.3202C15.8824 54.2636 15.876 54.2065 15.876 54.1466V45.6893C15.876 45.1813 16.2605 44.77 16.7482 44.7166C16.7819 44.7166 16.8187 44.7134 16.8519 44.7134H25.3129C25.4133 44.7134 25.51 44.7267 25.6003 44.7567C25.6003 44.7567 25.6003 44.7567 25.6035 44.7567C26.0009 44.8801 26.2883 45.2476 26.2883 45.6888Z" fill="#2A365C"/>
<path d="M21.6994 52.787L21.6925 53.6303L20.6213 53.6215L20.6277 52.816C19.8683 52.7644 19.1328 52.553 18.6792 52.2684L19.2673 50.966C19.7665 51.2663 20.4334 51.462 21.0187 51.4666C21.5276 51.4708 21.7109 51.3658 21.7128 51.1834C21.7183 50.5147 18.7731 51.0305 18.7893 49.047C18.7962 48.1885 19.4253 47.4715 20.6729 47.3071L20.6798 46.479L21.751 46.4878L21.7445 47.3006C22.3064 47.3586 22.8521 47.5074 23.2837 47.7538L22.7338 49.0488C22.2115 48.7785 21.7188 48.6454 21.2555 48.6417C20.7314 48.6375 20.5628 48.7881 20.5614 48.9705C20.5564 49.6088 23.501 49.1008 23.4849 51.0614C23.4776 51.882 22.8789 52.5913 21.6994 52.787Z" fill="#FEFDFF"/>
<path d="M57.5942 130.147L56.4433 130.222L55.8327 130.261L54.1033 130.373C54.1033 130.373 35.3534 105.021 44.4012 95.1632C47.1865 92.1287 52.7885 93.8152 52.9096 106.408C53.022 118.081 57.5942 130.147 57.5942 130.147Z" fill="#ABD3F2"/>
<path d="M56.4434 130.222L55.8327 130.261C52.3676 124.006 50.2275 117.12 49.0135 112.256C47.572 106.481 47.0875 102.228 47.0834 102.187C47.0659 102.035 47.1755 101.898 47.327 101.881C47.479 101.864 47.6158 101.973 47.6328 102.124C47.6374 102.167 48.1187 106.389 49.5528 112.131C50.7737 117.019 52.9345 123.96 56.4434 130.222Z" fill="#90C3EF"/>
<path d="M63.3844 133.968L62.0396 134.958L61.3262 135.482L59.3054 136.969C59.3054 136.969 16.6493 120.706 19.9809 101.624C21.0065 95.7489 29.153 93.4301 39.1342 108.686C48.3869 122.829 63.3844 133.968 63.3844 133.968Z" fill="#CAE6FE"/>
<path d="M62.0397 134.958L61.3263 135.482C52.2168 130.562 44.2302 123.839 38.9524 118.858C32.6854 112.944 28.7736 108.139 28.7358 108.09C28.5958 107.919 28.6225 107.667 28.7948 107.528C28.9661 107.388 29.2185 107.415 29.3575 107.585C29.3967 107.634 33.2804 112.405 39.512 118.284C44.8164 123.29 52.8722 130.065 62.0397 134.958Z" fill="#ABD3F2"/>
<path d="M147.877 93.5104C142.726 95.1974 143.03 100.38 138.81 100.385C134.591 100.39 131.463 103.127 132.335 106.748C133.208 110.369 134.053 112.985 129.904 114.762C125.755 116.537 123.803 121.892 127.172 123.898C128.01 124.398 128.919 124.938 129.81 125.465C130.054 125.61 130.296 125.753 130.535 125.895C130.59 125.928 130.645 125.961 130.7 125.993C134.286 128.117 138.937 127.255 141.423 123.912C142.43 122.558 142.973 120.957 142.394 119.174C140.585 113.591 146.302 115.464 148.605 112.045C151.259 108.107 148.045 104.88 150.323 102.169C153.493 98.3981 153.029 91.823 147.877 93.5104Z" fill="#ABD3F2"/>
<path d="M145.816 100.287L129.811 125.466C130.055 125.61 130.297 125.754 130.536 125.895L146.527 100.739C146.652 100.543 146.594 100.283 146.398 100.158C146.202 100.034 145.941 100.091 145.816 100.287Z" fill="#90C3EF"/>
<path d="M167.467 104.256C160.813 103.393 158.388 109.344 153.672 107.1C148.957 104.855 144.003 106.244 143.047 110.753C142.091 115.264 141.639 118.636 136.057 118.408C130.477 118.178 125.441 123.119 128.134 127.156C128.804 128.162 129.53 129.249 130.245 130.313C130.44 130.604 130.634 130.895 130.825 131.18C130.869 131.246 130.913 131.312 130.958 131.378C133.83 135.662 139.484 137.181 144.045 134.772C145.891 133.797 147.351 132.298 147.656 129.998C148.613 122.797 153.999 127.938 158.395 125.347C163.46 122.365 161.591 117.045 165.581 115.232C171.132 112.71 174.121 105.119 167.467 104.256Z" fill="#CAE6FE"/>
<path d="M161.55 110.726L130.245 130.314C130.44 130.604 130.634 130.895 130.826 131.18L162.103 111.61C162.347 111.457 162.421 111.136 162.269 110.892C162.116 110.648 161.794 110.573 161.55 110.726Z" fill="#ABD3F2"/>
<path d="M61.9689 78.5884C55.4596 71.0881 43.8743 56.302 40.3052 50.3634C35.6422 42.6047 33.5997 36.2935 34.2339 31.6043C34.2762 31.2938 34.5618 31.0755 34.8731 31.1175C35.184 31.1594 35.4018 31.4458 35.3599 31.7567C34.2509 39.9529 40.9191 51.9311 62.5367 77.5628L61.9689 78.5884Z" fill="#ABD3F2"/>
<path d="M36.7249 43.1001C36.7249 43.1001 32.9346 45.9587 28.1694 39.0985C28.1694 39.0985 35.212 36.368 36.7249 43.1001Z" fill="#CAE6FE"/>
<path d="M38.999 46.7635C38.999 46.7635 35.9341 43.1381 42.5185 37.9985C42.5185 37.9985 45.6363 44.8785 38.999 46.7635Z" fill="#CAE6FE"/>
<path d="M34.8293 35.2377C34.8293 35.2377 30.731 32.842 35.2249 25.8008C35.2249 25.8008 40.4585 31.2476 34.8293 35.2377Z" fill="#CAE6FE"/>
<path d="M43.346 54.276C43.346 54.276 40.7463 58.2482 33.9409 53.4042C33.9409 53.4042 39.6452 48.453 43.346 54.276Z" fill="#CAE6FE"/>
<path d="M46.2275 57.6576C46.2275 57.6576 42.5819 54.6172 48.1779 48.416C48.1779 48.416 52.4388 54.6531 46.2275 57.6576Z" fill="#CAE6FE"/>
<path d="M49.7133 62.6799C49.7133 62.6799 47.1891 66.7004 40.2935 61.9868C40.2935 61.9868 45.9024 56.9282 49.7133 62.6799Z" fill="#CAE6FE"/>
<path d="M137.659 7.61639V141.823C137.659 146.03 134.25 149.44 130.043 149.44H63.2102C61.0963 149.44 59.1855 148.58 57.8053 147.19C56.4389 145.813 55.5942 143.917 55.5942 141.823V7.61639C55.5942 3.40937 59.0036 0 63.2106 0H130.043C131.287 0 132.461 0.297507 133.498 0.827127C135.968 2.08578 137.659 4.65282 137.659 7.61639Z" fill="#2A365C"/>
<path d="M137.659 7.61641V141.823C137.659 146.03 134.25 149.44 130.043 149.44H63.2101C61.0962 149.44 59.1854 148.58 57.8052 147.191L133.497 0.827148C135.968 2.0858 137.659 4.65285 137.659 7.61641Z" fill="#16162F"/>
<path d="M55.5939 41.8719H54.4932C53.5624 41.8719 52.8076 41.1171 52.8076 40.1863V25.8272C52.8076 24.8964 53.5624 24.1416 54.4932 24.1416H55.5939V41.8719Z" fill="#16162F"/>
<path d="M137.659 37.2334H138.56C139.322 37.2334 139.939 36.6162 139.939 35.8545V24.1752C139.939 23.4135 139.322 22.7964 138.56 22.7964H137.659V37.2334Z" fill="#16162F"/>
<path d="M55.5939 62.0081H54.4932C53.5624 62.0081 52.8076 61.2538 52.8076 60.3225V45.9634C52.8076 45.0327 53.5624 44.2778 54.4932 44.2778H55.5939V62.0081Z" fill="#16162F"/>
<path d="M133.86 7.28514V142.155C133.86 144.079 132.299 145.641 130.375 145.641H62.8794C61.4443 145.641 60.2124 144.773 59.6782 143.535C59.4944 143.111 59.3936 142.645 59.3936 142.155V7.28514C59.3936 5.35962 60.9539 3.79932 62.8794 3.79932H130.375C130.884 3.79932 131.367 3.908 131.802 4.10465C133.015 4.64947 133.86 5.86852 133.86 7.28514Z" fill="#FEFDFF"/>
<path d="M126.975 106.926H85.8898C85.1432 106.926 84.5381 106.321 84.5381 105.574C84.5381 104.828 85.1432 104.223 85.8898 104.223H126.975C127.722 104.223 128.327 104.828 128.327 105.574C128.327 106.32 127.722 106.926 126.975 106.926Z" fill="#CAE6FE"/>
<path d="M126.975 112.782H85.8898C85.1432 112.782 84.5381 112.177 84.5381 111.43C84.5381 110.684 85.1432 110.079 85.8898 110.079H126.975C127.722 110.079 128.327 110.684 128.327 111.43C128.327 112.177 127.722 112.782 126.975 112.782Z" fill="#CAE6FE"/>
<path d="M126.975 118.639H85.8898C85.1432 118.639 84.5381 118.034 84.5381 117.287C84.5381 116.541 85.1432 115.936 85.8898 115.936H126.975C127.722 115.936 128.327 116.541 128.327 117.287C128.327 118.034 127.722 118.639 126.975 118.639Z" fill="#CAE6FE"/>
<path d="M80.8725 104.227H66.4673V118.632H80.8725V104.227Z" fill="#CAE6FE"/>
<path d="M90.1841 21.3398H67.819C67.0724 21.3398 66.4673 21.945 66.4673 22.6915C66.4673 23.4381 67.0724 24.0432 67.819 24.0432H90.1841C90.9306 24.0432 91.5358 23.4381 91.5358 22.6915C91.5358 21.945 90.9306 21.3398 90.1841 21.3398Z" fill="#CAE6FE"/>
<path d="M90.1841 27.1963H67.819C67.0724 27.1963 66.4673 27.8014 66.4673 28.548C66.4673 29.2945 67.0724 29.8996 67.819 29.8996H90.1841C90.9306 29.8996 91.5358 29.2945 91.5358 28.548C91.5358 27.8014 90.9306 27.1963 90.1841 27.1963Z" fill="#CAE6FE"/>
<path d="M90.1841 33.0527H67.819C67.0724 33.0527 66.4673 33.6579 66.4673 34.4044C66.4673 35.1509 67.0724 35.7561 67.819 35.7561H90.1841C90.9306 35.7561 91.5358 35.1509 91.5358 34.4044C91.5358 33.6579 90.9306 33.0527 90.1841 33.0527Z" fill="#CAE6FE"/>
<path d="M126.935 21.3398H104.569C103.823 21.3398 103.218 21.945 103.218 22.6915C103.218 23.4381 103.823 24.0432 104.569 24.0432H126.935C127.681 24.0432 128.286 23.4381 128.286 22.6915C128.286 21.945 127.681 21.3398 126.935 21.3398Z" fill="#CAE6FE"/>
<path d="M126.935 27.1963H104.569C103.823 27.1963 103.218 27.8014 103.218 28.548C103.218 29.2945 103.823 29.8996 104.569 29.8996H126.935C127.681 29.8996 128.286 29.2945 128.286 28.548C128.286 27.8014 127.681 27.1963 126.935 27.1963Z" fill="#CAE6FE"/>
<path d="M126.935 33.0527H104.569C103.823 33.0527 103.218 33.6579 103.218 34.4044C103.218 35.1509 103.823 35.7561 104.569 35.7561H126.935C127.681 35.7561 128.286 35.1509 128.286 34.4044C128.286 33.6579 127.681 33.0527 126.935 33.0527Z" fill="#CAE6FE"/>
<path d="M114 138.345H79.648C77.4683 138.345 75.7017 136.578 75.7017 134.399V129.244C75.7017 127.064 77.4687 125.297 79.648 125.297H114C116.179 125.297 117.946 127.064 117.946 129.244V134.399C117.946 136.578 116.179 138.345 114 138.345Z" fill="#2A365C"/>
<path d="M83.0791 136.095V129.128H86.4333C87.0836 129.128 87.6443 129.234 88.1154 129.446C88.5931 129.659 88.9614 129.964 89.2202 130.362C89.479 130.754 89.6084 131.218 89.6084 131.756C89.6084 132.293 89.479 132.758 89.2202 133.149C88.9614 133.534 88.5931 133.829 88.1154 134.035C87.6443 134.241 87.0836 134.343 86.4333 134.343H84.3829L85.428 133.378V136.095H83.0791ZM87.2494 136.095L85.5375 133.557H88.0258L89.7577 136.095H87.2494ZM85.428 133.637L84.3829 132.572H86.284C86.6091 132.572 86.848 132.499 87.0006 132.353C87.1599 132.207 87.2395 132.008 87.2395 131.756C87.2395 131.503 87.1599 131.304 87.0006 131.158C86.848 131.012 86.6091 130.939 86.284 130.939H84.3829L85.428 129.874V133.637ZM92.6453 131.716H95.7507V133.408H92.6453V131.716ZM92.8045 134.324H96.2881V136.095H90.4954V129.128H96.1587V130.9H92.8045V134.324ZM97.1924 136.095V129.128H99.1233L102.667 133.368H101.771V129.128H104.06V136.095H102.129L98.5858 131.855H99.4816V136.095H97.1924ZM106.705 136.095V130.949H104.664V129.128H111.094V130.949H109.054V136.095H106.705Z" fill="#16162F"/>
<path d="M83.0791 135.343V128.376H86.4333C87.0836 128.376 87.6443 128.482 88.1154 128.695C88.5931 128.907 88.9614 129.212 89.2202 129.61C89.479 130.002 89.6084 130.466 89.6084 131.004C89.6084 131.541 89.479 132.006 89.2202 132.397C88.9614 132.782 88.5931 133.077 88.1154 133.283C87.6443 133.489 87.0836 133.591 86.4333 133.591H84.3829L85.428 132.626V135.343H83.0791ZM87.2494 135.343L85.5375 132.805H88.0258L89.7577 135.343H87.2494ZM85.428 132.885L84.3829 131.82H86.284C86.6091 131.82 86.848 131.747 87.0006 131.601C87.1599 131.455 87.2395 131.256 87.2395 131.004C87.2395 130.752 87.1599 130.552 87.0006 130.406C86.848 130.26 86.6091 130.187 86.284 130.187H84.3829L85.428 129.123V132.885ZM92.6453 130.964H95.7507V132.656H92.6453V130.964ZM92.8045 133.572H96.2881V135.343H90.4954V128.376H96.1587V130.148H92.8045V133.572ZM97.1924 135.343V128.376H99.1233L102.667 132.616H101.771V128.376H104.06V135.343H102.129L98.5858 131.103H99.4816V135.343H97.1924ZM106.705 135.343V130.197H104.664V128.376H111.094V130.197H109.054V135.343H106.705Z" fill="#FEFDFF"/>
<path d="M70.4438 4.85856L74.1355 10.4753C75.1653 12.042 76.9144 12.9857 78.7897 12.9857H114.465C116.34 12.9857 118.09 12.042 119.119 10.4753L122.811 4.85856C122.811 4.27644 122.335 3.79932 121.752 3.79932H71.5031C70.9214 3.79932 70.4438 4.2769 70.4438 4.85856Z" fill="#2A365C"/>
<path d="M108.748 8.91962H78.1795C77.5583 8.91962 77.0503 8.41118 77.0503 7.79038C77.0503 7.16911 77.5587 6.66113 78.1795 6.66113H108.748C109.37 6.66113 109.877 7.16957 109.877 7.79038C109.877 8.41118 109.369 8.91962 108.748 8.91962Z" fill="#445279"/>
<path d="M115.87 7.71474C115.87 8.46312 115.263 9.07011 114.515 9.07011C113.766 9.07011 113.159 8.46358 113.159 7.71474C113.159 6.96637 113.766 6.35938 114.515 6.35938C115.263 6.35938 115.87 6.96637 115.87 7.71474Z" fill="#445279"/>
<path d="M128.957 63.4258H64.6606V92.6382H128.957V63.4258Z" fill="#009EF3"/>
<path d="M128.957 63.4258H64.6606V65.7455H128.957V63.4258Z" fill="#007CE6"/>
<path d="M128.957 61.6885H64.6606L69.6662 49.8379H123.951L128.957 61.6885Z" fill="#445279"/>
<path d="M130.997 61.6084H61.8042V63.4261H130.997V61.6084Z" fill="#2A365C"/>
<path d="M110.348 92.6384H83.2705V69.979L97.1728 62.4243L110.348 69.2366V92.6384Z" fill="#009EF3"/>
<path d="M83.9996 72.0444H81.7227V92.6384H83.9996V72.0444Z" fill="#007CE6"/>
<path d="M111.925 72.0444H109.648V92.6384H111.925V72.0444Z" fill="#007CE6"/>
<path d="M101.441 77.3882H92.1772V92.6772H101.441V77.3882Z" fill="#2A365C"/>
<path d="M100.508 78.3208H93.1094V92.6776H100.508V78.3208Z" fill="#445279"/>
<path d="M100.034 85.9341C100.034 86.3634 99.6866 86.7111 99.2574 86.7111C98.8282 86.7111 98.4805 86.3634 98.4805 85.9341C98.4805 85.5049 98.8282 85.1572 99.2574 85.1572C99.6866 85.1572 100.034 85.5049 100.034 85.9341Z" fill="#2A365C"/>
<path d="M102.528 77.3883H91.0907C90.7094 77.3883 90.4004 77.0793 90.4004 76.6979V76.2471H103.219V76.6979C103.218 77.0793 102.909 77.3883 102.528 77.3883Z" fill="#2A365C"/>
<path d="M96.4011 79.374H94.1182V84.0218H96.4011V79.374Z" fill="#CAE6FE"/>
<path d="M96.4011 79.5581V80.9333L94.1182 83.2152V81.8401L96.4011 79.5581Z" fill="#FEFDFF"/>
<path opacity="0.2" d="M96.4011 79.374H94.1182V80.0312H96.4011V79.374Z" fill="black"/>
<path d="M99.6222 79.374H97.3394V84.0218H99.6222V79.374Z" fill="#CAE6FE"/>
<path d="M99.6222 79.5581V80.9333L97.3394 83.2152V81.8401L99.6222 79.5581Z" fill="#FEFDFF"/>
<path opacity="0.2" d="M99.6222 79.374H97.3394V80.0312H99.6222V79.374Z" fill="black"/>
<path d="M130.997 61.6207H61.8042V60.6416C61.8042 59.8136 62.4752 59.1426 63.3033 59.1426H129.499C130.327 59.1426 130.998 59.8136 130.998 60.6416V61.6207H130.997Z" fill="#2A365C"/>
<path d="M117.181 72.0653L113.473 72.0552L109.618 72.0446L96.8089 63.4095L83.9995 72.0446L80.1443 72.0552L76.436 72.0653L96.8089 58.3325L117.181 72.0653Z" fill="#445279"/>
<path d="M113.474 72.0552L109.618 72.0446L96.8091 63.4095L83.9997 72.0446L80.1445 72.0552L96.8091 60.8213L113.474 72.0552Z" fill="#2A365C"/>
<path d="M76.5373 76.0146H71.0767V86.205H76.5373V76.0146Z" fill="#CAE6FE"/>
<path d="M76.5372 76.0146H74.6126L71.0913 79.5359V82.4134L76.5372 76.9675V76.0146Z" fill="#FEFDFF"/>
<path d="M76.5372 80.3237L71.0913 85.7701V86.2048H72.0939L76.5372 81.762V80.3237Z" fill="#FEFDFF"/>
<path d="M70.3306 75.2686V86.9506H76.5373V75.2686H70.3306ZM71.0771 76.0142H75.7774V80.7246H71.0771V76.0142ZM71.0771 86.2045V81.4941H75.7774V86.2045H71.0771Z" fill="#445279"/>
<path opacity="0.2" d="M76.5368 75.3325H70.3306V76.5354H76.5368V75.3325Z" fill="black"/>
<path d="M77.1689 75.2683H69.699C69.3835 75.2683 69.1279 75.0127 69.1279 74.6973V74.3242H77.74V74.6973C77.74 75.0127 77.4839 75.2683 77.1689 75.2683Z" fill="#2A365C"/>
<path d="M76.5373 86.9502H70.3306V88.1458H76.5373V86.9502Z" fill="#007CE6"/>
<path d="M124.591 76.0146H119.13V86.205H124.591V76.0146Z" fill="#CAE6FE"/>
<path d="M124.591 76.0146H122.667L119.145 79.5359V82.4134L124.591 76.9675V76.0146Z" fill="#FEFDFF"/>
<path d="M124.591 80.3237L119.145 85.7701V86.2048H120.148L124.591 81.762V80.3237Z" fill="#FEFDFF"/>
<path d="M118.384 75.2686V86.9506H124.591V75.2686H118.384ZM119.131 76.0142H123.831V80.7246H119.131V76.0142ZM119.131 86.2045V81.4941H123.831V86.2045H119.131Z" fill="#445279"/>
<path opacity="0.2" d="M124.591 75.3325H118.385V76.5354H124.591V75.3325Z" fill="black"/>
<path d="M125.223 75.2683H117.753C117.437 75.2683 117.182 75.0127 117.182 74.6973V74.3242H125.794V74.6973C125.794 75.0127 125.538 75.2683 125.223 75.2683Z" fill="#2A365C"/>
<path d="M124.591 86.9502H118.384V88.1458H124.591V86.9502Z" fill="#007CE6"/>
<path d="M122.568 52.1944H71.4023C71.2222 52.1944 71.0767 52.0484 71.0767 51.8688V51.4433C71.0767 51.2632 71.2227 51.1177 71.4023 51.1177H122.568C122.747 51.1177 122.893 51.2637 122.893 51.4433V51.8688C122.893 52.0489 122.747 52.1944 122.568 52.1944Z" fill="#2A365C"/>
<path d="M123.252 55.026H70.3207C70.1406 55.026 69.9951 54.88 69.9951 54.7004V54.2748C69.9951 54.0947 70.1411 53.9492 70.3207 53.9492H123.253C123.433 53.9492 123.578 54.0952 123.578 54.2748V54.7004C123.578 54.88 123.432 55.026 123.252 55.026Z" fill="#2A365C"/>
<path d="M125.468 57.8575H68.706C68.5259 57.8575 68.3804 57.7115 68.3804 57.5319V57.1064C68.3804 56.9267 68.5264 56.7808 68.706 56.7808H125.468C125.648 56.7808 125.793 56.9267 125.793 57.1064V57.5319C125.794 57.7115 125.648 57.8575 125.468 57.8575Z" fill="#2A365C"/>
<path d="M80.6139 46.0962H73.4341V54.1952H80.6139V46.0962Z" fill="#009EF3"/>
<path d="M80.6139 46.0962H73.4341V48.1769H80.6139V46.0962Z" fill="#007CE6"/>
<path d="M82.113 43.356V44.318C82.113 44.458 82.0964 44.5948 82.0651 44.7261C81.8809 45.5108 81.1753 46.0962 80.3348 46.0962H73.7132C72.8723 46.0962 72.1667 45.5108 71.983 44.7261C71.9516 44.5948 71.9351 44.458 71.9351 44.318V43.356H82.113Z" fill="#445279"/>
<path d="M82.065 44.7261C81.8808 45.5108 81.1753 46.0962 80.3348 46.0962H73.7132C72.8722 46.0962 72.1667 45.5108 71.9829 44.7261H82.065Z" fill="#2A365C"/>
<path d="M130.149 94.4509H63.3894C63.0868 94.4509 62.8413 94.2054 62.8413 93.9029V93.1872C62.8413 92.8846 63.0868 92.6392 63.3894 92.6392H130.149C130.452 92.6392 130.697 92.8846 130.697 93.1872V93.9029C130.697 94.2054 130.452 94.4509 130.149 94.4509Z" fill="#445279"/>
<path d="M131.846 96.2336H61.6931C61.3905 96.2336 61.145 95.9882 61.145 95.6856V94.9699C61.145 94.6673 61.3905 94.4219 61.6931 94.4219H131.846C132.148 94.4219 132.394 94.6673 132.394 94.9699V95.6856C132.394 95.9886 132.148 96.2336 131.846 96.2336Z" fill="#2A365C"/>
<path d="M83.9995 72.0658V74.818L96.9849 66.4597L109.648 74.818L109.618 72.0658L96.8089 63.4312L83.9995 72.0658Z" fill="#007CE6"/>
<path opacity="0.3" d="M133.86 7.28546V142.155C133.86 144.08 132.299 145.641 130.374 145.641H62.8789C61.4439 145.641 60.212 144.774 59.6777 143.535L131.802 4.10498C133.014 4.6498 133.86 5.86884 133.86 7.28546Z" fill="#FEFDFF"/>
<path d="M16.7519 124.796L22.3484 126.669C23.0563 126.905 23.8217 126.523 24.0575 125.816L28.8015 111.639L30.7638 105.776L22.6058 103.045L21.4434 106.519L15.8995 123.086C15.6623 123.793 16.0441 124.558 16.7519 124.796Z" fill="#61B3FF"/>
<path d="M21.4438 106.519C23.0672 108.323 25.5228 110.448 28.8019 111.639L30.7642 105.776L22.6062 103.045L21.4438 106.519Z" fill="#009EF3"/>
<path d="M22.0823 126.58L21.5366 128.211L14.5088 149.213C14.0404 150.612 12.5275 151.366 11.1284 150.899C9.73069 150.43 8.97541 148.917 9.44424 147.518L15.8089 128.499L17.0178 124.885L22.0823 126.58Z" fill="#2A365C"/>
<path d="M22.0825 126.58L21.5368 128.211L15.8091 128.499L17.018 124.885L22.0825 126.58Z" fill="#16162F"/>
<path d="M10.6974 75.9451C6.39277 88.5947 13.1567 102.34 25.8077 106.646C38.4582 110.951 52.203 104.185 56.5081 91.5353C60.8133 78.8847 54.0489 65.139 41.3983 60.8335C28.7473 56.5288 15.0025 63.2946 10.6974 75.9451ZM14.21 77.1407C17.8491 66.447 29.5091 60.7073 40.2028 64.3465C50.8965 67.9856 56.6343 79.6465 52.9952 90.3397C49.3564 101.032 37.6965 106.772 27.0028 103.133C16.3096 99.4939 10.5712 87.833 14.21 77.1407Z" fill="#445279"/>
<path opacity="0.5" d="M13.1688 85.1783C13.9614 96.4449 23.7727 104.968 35.0407 104.175C36.0069 104.107 36.9542 103.973 37.8767 103.776C40.2669 103.268 42.4936 102.346 44.4845 101.093C46.5606 99.7857 48.3802 98.119 49.8599 96.187C52.188 93.1525 53.6778 89.4631 54.0158 85.485C54.1047 84.4424 54.1135 83.379 54.0379 82.3032C53.2453 71.0352 43.434 62.5124 32.166 63.305C31.0897 63.3805 30.0383 63.5385 29.0173 63.7725C25.1253 64.6641 21.68 66.6573 19.0024 69.3869C17.2966 71.1222 15.9012 73.1573 14.899 75.396C13.937 77.5426 13.336 79.8766 13.1674 82.3142C13.1011 83.2555 13.1006 84.2121 13.1688 85.1783Z" fill="#FEFDFF"/>
<path opacity="0.5" d="M19.0015 69.3864L49.8594 96.1865C52.1874 93.152 53.6773 89.4627 54.0153 85.4845L29.0163 63.772C25.1243 64.6636 21.679 66.6568 19.0015 69.3864Z" fill="#FEFDFF"/>
<path opacity="0.5" d="M13.1665 82.3142L37.8767 103.776C40.2669 103.268 42.4936 102.346 44.4845 101.093L14.8986 75.396C13.9361 77.5426 13.3351 79.8766 13.1665 82.3142Z" fill="#FEFDFF"/>
<path d="M149.947 139.151L149.689 143.799L153.46 143.882L153.921 139L149.947 139.151Z" fill="#FBA691"/>
<path d="M151.185 143.146C151.185 143.146 153.126 142.706 153.657 142.737C154.188 142.768 157.597 146.883 158.786 147.163C160.944 147.67 160.818 151.064 159.489 151.182C155.645 151.524 149.162 149.66 149.162 149.66C149.162 149.66 148.724 145.283 149.038 143.926C149.352 142.569 150.102 143.507 151.185 143.146Z" fill="#009EF3"/>
<path d="M154.212 146.984C154.143 146.996 154.07 146.981 154.008 146.937C153.89 146.851 153.864 146.685 153.95 146.567C153.979 146.527 154.665 145.594 155.482 145.291C156.569 144.886 157.306 145.558 157.338 145.587C157.445 145.686 157.45 145.854 157.35 145.962C157.25 146.069 157.083 146.075 156.976 145.975C156.955 145.957 156.441 145.502 155.667 145.788C155.001 146.035 154.385 146.871 154.379 146.88C154.337 146.936 154.276 146.972 154.212 146.984Z" fill="#FEFDFF"/>
<path d="M153.509 146.153C153.441 146.166 153.367 146.151 153.306 146.107C153.188 146.021 153.161 145.855 153.248 145.737C153.277 145.697 153.963 144.764 154.78 144.46C155.868 144.056 156.604 144.727 156.635 144.757C156.742 144.856 156.748 145.024 156.648 145.131C156.549 145.238 156.38 145.244 156.273 145.144C156.253 145.126 155.738 144.671 154.964 144.957C154.296 145.206 153.683 146.04 153.677 146.048C153.635 146.106 153.574 146.141 153.509 146.153Z" fill="#FEFDFF"/>
<path d="M155.209 147.705C155.14 147.718 155.066 147.703 155.005 147.659C154.887 147.572 154.86 147.407 154.947 147.288C154.976 147.249 155.662 146.315 156.479 146.012C157.567 145.607 158.303 146.279 158.334 146.308C158.441 146.408 158.447 146.575 158.347 146.682C158.248 146.79 158.08 146.796 157.972 146.695C157.952 146.677 157.437 146.222 156.663 146.509C155.995 146.757 155.382 147.591 155.376 147.6C155.334 147.658 155.274 147.693 155.209 147.705Z" fill="#FEFDFF"/>
<path d="M163.813 82.5203C163.813 82.5203 163.735 83.6117 163.592 85.4217C163.555 85.9006 163.514 86.4302 163.468 87.0059C162.979 93.0804 162.035 104.064 161.004 111.857C159.558 122.781 155.003 140.732 155.003 140.732L150.301 140.571L149.836 140.553L148.721 140.516C148.721 140.516 149.504 129.159 150.503 119.299C151.162 112.796 151.554 97.4095 151.742 87.6921C151.839 82.6815 151.885 79.1768 151.885 79.1768L163.813 82.5203Z" fill="#2A365C"/>
<path d="M163.813 82.5203C163.813 82.5203 163.735 83.6117 163.592 85.4217C163.555 85.9006 163.514 86.4302 163.468 87.0059C161.298 87.4112 155.334 87.6921 151.742 87.6921C151.839 82.6815 151.885 79.1768 151.885 79.1768L163.813 82.5203Z" fill="#16162F"/>
<path d="M154.418 85.342C154.414 85.715 153.981 121.117 150.301 140.57L149.836 140.551C153.52 121.158 153.953 85.7058 153.958 85.3374L154.418 85.342Z" fill="#16162F"/>
<path d="M179.436 140.044L179.282 144.237L175.45 144.034L175.363 139.582L179.436 140.044Z" fill="#FBA691"/>
<path d="M178.305 144.044C178.305 144.044 179.14 142.956 179.79 143.012C180.44 143.069 185.397 147.132 187.112 147.487C188.826 147.841 188.473 149.102 188.148 149.744C187.824 150.386 174.441 149.298 174.441 149.298C174.441 149.298 174.132 145.305 174.588 144.092C175.043 142.879 176.957 144.312 178.305 144.044Z" fill="#009EF3"/>
<path d="M181.036 146.868C180.975 146.885 180.907 146.879 180.848 146.844C180.734 146.776 180.696 146.628 180.763 146.514C180.786 146.476 181.324 145.572 182.036 145.226C182.983 144.765 183.708 145.308 183.738 145.331C183.844 145.411 183.864 145.563 183.783 145.668C183.702 145.774 183.551 145.794 183.445 145.713C183.426 145.698 182.921 145.332 182.246 145.659C181.666 145.941 181.183 146.75 181.178 146.759C181.146 146.814 181.094 146.852 181.036 146.868Z" fill="#FEFDFF"/>
<path d="M180.329 146.18C180.268 146.197 180.2 146.19 180.141 146.155C180.026 146.087 179.988 145.94 180.056 145.825C180.079 145.787 180.617 144.883 181.328 144.538C182.276 144.077 183.001 144.619 183.031 144.642C183.136 144.723 183.157 144.874 183.076 144.98C182.995 145.085 182.844 145.106 182.738 145.025C182.718 145.01 182.213 144.644 181.539 144.971C180.956 145.254 180.475 146.062 180.471 146.07C180.438 146.126 180.387 146.163 180.329 146.18Z" fill="#FEFDFF"/>
<path d="M182.001 147.433C181.94 147.45 181.872 147.444 181.814 147.409C181.699 147.341 181.661 147.194 181.728 147.079C181.751 147.041 182.289 146.137 183.001 145.791C183.949 145.33 184.673 145.872 184.704 145.896C184.809 145.976 184.829 146.128 184.749 146.233C184.668 146.339 184.516 146.359 184.411 146.278C184.391 146.263 183.885 145.898 183.212 146.225C182.629 146.507 182.148 147.316 182.144 147.324C182.111 147.379 182.059 147.417 182.001 147.433Z" fill="#FEFDFF"/>
<path d="M180.134 141.138L176.239 140.848L175.775 140.816L174.828 140.745C174.828 140.745 172.435 117.969 171.691 111.901C171.044 106.631 168.023 94.7883 166.061 87.4197C165.505 85.3279 165.034 83.5968 164.724 82.4781C164.487 81.5985 164.347 81.0984 164.347 81.0984L177.371 79.8374C177.371 79.8374 177.407 80.1234 177.467 80.6383C177.594 81.692 177.837 83.711 178.132 86.2486C178.945 93.1557 180.182 103.905 180.661 109.376C181.89 123.467 180.134 141.138 180.134 141.138Z" fill="#2A365C"/>
<path d="M178.132 86.2484L166.061 87.4187C165.505 85.3269 165.034 83.5957 164.724 82.4771L177.467 80.6377C177.594 81.6919 177.838 83.7109 178.132 86.2484Z" fill="#16162F"/>
<path d="M176.239 140.848L175.775 140.816C175.549 133.773 174.857 116.182 173.446 108.725C171.673 99.3247 167.595 85.6371 167.553 85.4989L167.996 85.3672C168.038 85.5058 172.123 99.217 173.899 108.641C175.319 116.144 176.016 133.819 176.239 140.848Z" fill="#16162F"/>
<path d="M176.632 47.3043C176.887 49.0065 177.151 50.6395 177.381 52.0073C177.752 54.2133 178.032 55.729 178.032 55.729L180.03 61.4558C180.715 63.4144 182.988 64.2945 184.814 63.3076C184.845 63.2924 184.881 63.279 184.908 63.2574C185.575 62.7443 186.105 61.7482 186.597 59.4041C186.597 59.4041 186.597 59.4041 186.597 59.4031C186.613 59.2005 188.384 50.4613 188.4 47.3158L184.351 46.9313C184.178 46.5527 183.309 51.048 183.116 50.6331C182.994 50.3655 182.866 50.0897 182.738 49.8106C182.523 49.3468 182.299 48.8674 182.073 48.3778C181.751 47.6838 181.418 46.9681 181.082 46.2469C178.607 40.9213 175.971 35.2856 175.971 35.2856C175.116 35.7632 175.823 41.8833 176.632 47.3043Z" fill="#FBA691"/>
<path d="M176.632 47.304C176.887 49.0066 177.151 50.6397 177.381 52.0075C179.733 51.1237 181.238 49.5266 182.073 48.378C181.75 47.6835 181.418 46.9678 181.082 46.2471L176.632 47.304Z" fill="#FD857D"/>
<path d="M182.008 57.5499C182.022 57.5508 182.034 57.5499 182.048 57.5494C182.173 57.5421 182.277 57.4444 182.288 57.3164C182.561 54.2598 182.89 51.994 183.117 50.6331C182.994 50.3655 182.866 50.0896 182.737 49.8105C182.52 51.0112 182.107 53.5658 181.775 57.2704C181.763 57.4117 181.867 57.5361 182.008 57.5499Z" fill="#FD857D"/>
<path d="M183.677 45.9206C183.677 45.9206 183.184 46.5837 182.297 47.3326C181.224 48.2435 179.218 49.4041 177.176 49.5455C175.217 43.3954 174.6 35.6386 175.193 33.5864C176.204 34.6917 181.351 40.8427 183.677 45.9206Z" fill="#61B3FF"/>
<path d="M182.296 46.0265L182.361 46.0648L182.906 46.3775L183.034 46.1481L187.77 46.0183C188.17 46.0086 188.498 45.6986 188.534 45.2998L189.404 35.4033C189.408 35.3536 189.409 35.3043 189.404 35.2582L189.586 34.9796L189.014 34.6517L188.992 34.6397L188.976 34.6305C188.863 34.5734 188.734 34.5416 188.598 34.5458L183.576 34.6835C183.176 34.6931 182.847 35.0031 182.814 35.4015L181.943 45.298C181.918 45.5992 182.064 45.8723 182.296 46.0265Z" fill="#2A365C"/>
<path d="M183.325 46.484L188.345 46.3473C188.745 46.3362 189.073 46.0272 189.108 45.6284L189.978 35.7309C190.02 35.2616 189.642 34.8614 189.172 34.8743L184.152 35.0111C183.752 35.0222 183.423 35.3312 183.388 35.73L182.518 45.6274C182.477 46.0963 182.854 46.4969 183.325 46.484Z" fill="#445279"/>
<path d="M189.597 40.0644C190.062 40.1178 189.677 40.8008 189.984 41.7583C190.366 42.9511 188.386 47.8521 188.386 47.8521C186.463 48.7258 184.155 47.1926 184.155 47.1926C184.155 47.1926 183.66 43.4586 184.122 41.7712C184.122 41.7712 184.394 40.2634 184.474 39.3787C184.554 38.4995 184.946 37.4914 185.224 37.6701C185.502 37.8488 185.571 38.5672 185.577 39.1125C185.583 39.6578 185.693 40.7004 185.693 40.7004C185.693 40.7004 185.843 39.4123 185.866 38.7021C185.889 37.9924 185.834 36.8641 186.266 36.6426C186.81 36.364 186.965 37.8759 187.035 38.424C187.105 38.972 186.889 40.6755 186.889 40.6755C186.889 40.6755 187.261 38.7643 187.167 38.1983C187.073 37.6318 186.956 36.5266 186.984 36.0582C187.012 35.5898 187.614 35.6672 187.795 36.2438C187.976 36.8204 188.183 37.9791 188.233 38.3673C188.296 38.8624 188.175 40.5111 188.175 40.5111C188.175 40.5111 188.411 38.6335 188.396 38.1375C188.384 37.7345 188.259 36.9383 188.403 36.4741C188.546 36.0098 189.103 35.9214 189.281 37.1409C189.458 38.3604 189.488 38.5046 189.454 38.8698C189.393 39.5131 189.283 40.2261 189.356 40.4909C189.393 40.623 189.545 40.6249 189.545 40.6249L189.597 40.0644Z" fill="#FBA691"/>
<path d="M179.479 80.8433C169.778 83.9336 159.916 84.5212 149.892 82.6311C149.699 79.902 149.193 70.9436 148.81 61.503C148.797 61.1898 148.784 60.8767 148.772 60.5631C148.763 60.3116 148.753 60.0606 148.743 59.8078C148.735 59.6268 148.728 59.4444 148.722 59.262C148.718 59.1791 148.715 59.0962 148.712 59.0129C148.702 58.7665 148.695 58.5146 148.685 58.2696C148.676 58.0637 148.666 57.8583 148.659 57.6524C148.659 57.6244 148.657 57.5953 148.657 57.5672C148.656 57.5415 148.655 57.5171 148.654 57.4913C148.645 57.2753 148.639 57.0574 148.63 56.8437C148.629 56.8018 148.627 56.7595 148.625 56.7185C148.618 56.4587 148.607 56.1994 148.6 55.9411C148.592 55.7624 148.586 55.5869 148.579 55.4115C148.577 55.3401 148.575 55.2687 148.572 55.1973C148.563 54.9988 148.556 54.7989 148.552 54.6023C148.549 54.5424 148.548 54.483 148.547 54.4232C148.542 54.2417 148.536 54.0593 148.531 53.877C148.529 53.7996 148.528 53.7227 148.525 53.6453C148.518 53.3856 148.506 53.1277 148.503 52.8721C148.493 52.6206 148.486 52.3738 148.481 52.1283C148.474 51.9634 148.469 51.7999 148.464 51.636C148.453 51.2791 148.444 50.9258 148.437 50.5763C148.23 42.4887 148.254 35.8533 148.834 34.9451C150.181 32.8405 156.696 29.4527 158.662 27.886L158.682 28.2093C158.682 28.2093 160.07 29.8327 161.51 29.6181C162.818 29.4279 163.732 27.8445 163.884 27.5576C164.951 28.2171 167.38 29.2377 169.742 30.3425C172.104 31.4432 174.398 32.6203 175.193 33.5856C175.874 34.4173 176.635 40.887 177.328 48.8304L177.33 48.8562C177.342 49.0045 177.356 49.1523 177.369 49.3001L177.37 49.3222C177.377 49.4369 177.388 49.5506 177.4 49.6695C177.406 49.7418 177.411 49.8132 177.418 49.8864C177.432 50.0485 177.447 50.2129 177.46 50.3773C177.479 50.6223 177.502 50.8683 177.522 51.1188C177.541 51.373 177.561 51.6309 177.585 51.8893C177.591 51.9662 177.597 52.0431 177.603 52.12C177.618 52.3019 177.632 52.4838 177.649 52.6644C177.654 52.7238 177.657 52.7832 177.662 52.843C177.678 53.0388 177.693 53.2382 177.709 53.4367L177.725 53.6499C177.738 53.8249 177.753 53.9999 177.767 54.1781C177.786 54.436 177.806 54.6949 177.827 54.9537C177.829 54.9947 177.833 55.0366 177.836 55.0785C177.852 55.2922 177.868 55.5091 177.885 55.7246C177.886 55.7504 177.889 55.7748 177.89 55.8006C177.892 55.8287 177.895 55.8577 177.897 55.8858C177.914 56.0908 177.929 56.2962 177.945 56.5016C177.964 56.7466 177.984 56.9925 177.999 57.2435C178.005 57.3264 178.011 57.4093 178.017 57.4917C178.032 57.6736 178.045 57.8555 178.058 58.0365C178.077 58.2875 178.096 58.5381 178.113 58.79C178.136 59.1027 178.158 59.4154 178.18 59.7281C178.85 69.1235 179.35 78.0861 179.479 80.8433Z" fill="#61B3FF"/>
<path d="M177.604 52.1198L148.531 53.8763C148.529 53.7989 148.527 53.722 148.525 53.6447C148.518 53.3849 148.505 53.127 148.503 52.8714C148.492 52.62 148.486 52.3731 148.48 52.1276C148.474 51.9628 148.469 51.7993 148.463 51.6353L177.418 49.8857C177.431 50.0479 177.447 50.2123 177.459 50.3767C177.479 50.6217 177.502 50.8676 177.522 51.1181C177.54 51.3724 177.561 51.6303 177.585 51.8886C177.591 51.966 177.597 52.0429 177.604 52.1198Z" fill="#009EF3"/>
<path d="M177.897 55.8854L148.659 57.652C148.659 57.6239 148.657 57.5949 148.656 57.5668C148.656 57.541 148.655 57.5166 148.654 57.4908C148.644 57.2748 148.639 57.057 148.63 56.8433C148.629 56.8014 148.627 56.759 148.625 56.718C148.618 56.4583 148.607 56.199 148.599 55.9406C148.592 55.7619 148.586 55.5865 148.579 55.411L177.725 53.6499C177.738 53.8249 177.752 53.9999 177.767 54.1781C177.786 54.436 177.806 54.6949 177.827 54.9537C177.829 54.9947 177.833 55.0366 177.836 55.0785C177.851 55.2922 177.868 55.5091 177.885 55.7246C177.886 55.7504 177.889 55.7748 177.89 55.8006C177.892 55.8282 177.895 55.8573 177.897 55.8854Z" fill="#009EF3"/>
<path d="M178.18 59.7286L148.81 61.503C148.797 61.1899 148.783 60.8767 148.771 60.5631C148.762 60.3116 148.753 60.0606 148.742 59.8078C148.735 59.6268 148.727 59.4444 148.721 59.262L178.017 57.4922C178.031 57.6741 178.045 57.856 178.058 58.037C178.077 58.288 178.095 58.5385 178.113 58.7904C178.135 59.1032 178.158 59.4159 178.18 59.7286Z" fill="#009EF3"/>
<path d="M174.106 44.888C175.023 45.9827 176.418 48.5046 177.046 49.6712C177.132 49.8314 177.203 49.9659 177.257 50.0677C177.329 50.2017 177.368 50.2791 177.371 50.2851C177.392 50.3251 177.422 50.356 177.458 50.3772C177.439 50.14 177.418 49.9042 177.398 49.6689C177.389 49.5524 177.378 49.4358 177.368 49.3212L177.367 49.3023C177.238 49.0646 177.086 48.7856 176.917 48.4793C176.206 47.1995 175.197 45.4775 174.458 44.5942C174.377 44.497 174.232 44.4846 174.134 44.5656C174.037 44.6467 174.026 44.7913 174.106 44.888Z" fill="#009EF3"/>
<path d="M154.663 37.1389C154.665 37.1389 154.668 37.1385 154.67 37.1385C158.586 36.7765 161.515 34.9615 163.282 33.5025C165.196 31.922 166.172 30.4469 166.213 30.3847C166.283 30.2788 166.253 30.1369 166.147 30.0678C166.041 29.9983 165.899 30.0282 165.83 30.1337C165.791 30.1922 161.894 36.0106 154.628 36.6825C154.502 36.6941 154.409 36.8055 154.421 36.9317C154.432 37.0551 154.54 37.1463 154.663 37.1389Z" fill="#009EF3"/>
<path d="M171.588 75.9006C171.708 75.8933 171.803 75.7947 171.803 75.6731C171.804 75.5465 171.702 75.4433 171.575 75.4429C165.113 75.4097 161.076 72.3798 158.828 69.8441C156.383 67.0868 155.459 64.2978 155.45 64.2697C155.411 64.1495 155.282 64.0832 155.161 64.1228C155.041 64.1619 154.975 64.2909 155.014 64.4111C155.051 64.5281 155.97 67.3056 158.472 70.1338C160.784 72.7459 164.933 75.867 171.573 75.9011C171.579 75.9011 171.583 75.9011 171.588 75.9006Z" fill="#009EF3"/>
<path d="M166.131 72.0672C166.232 72.0612 166.32 71.9884 166.341 71.8848C166.367 71.7609 166.287 71.6398 166.163 71.614C160.478 70.4396 159.116 65.8333 159.103 65.7872C159.069 65.6657 158.942 65.5943 158.821 65.6288C158.699 65.6629 158.628 65.7891 158.662 65.9111C158.676 65.9618 159.02 67.1643 160.108 68.5298C161.109 69.7866 162.955 71.4196 166.07 72.063C166.091 72.0672 166.111 72.0685 166.131 72.0672Z" fill="#009EF3"/>
<path d="M151.261 45.5164C150.483 46.7133 149.401 49.3849 148.918 50.6187C148.852 50.7877 148.798 50.93 148.756 51.0382C148.701 51.1791 148.671 51.2616 148.669 51.2671C148.636 51.3551 148.556 51.4103 148.468 51.4159L148.463 51.4163C148.459 51.2998 148.455 51.1828 148.451 51.0672C148.384 51.0714 148.316 51.0755 148.251 51.0769C148.278 51.0078 148.342 50.8383 148.434 50.5998C148.55 50.3 148.712 49.8887 148.902 49.4203C149.454 48.0636 150.248 46.2325 150.875 45.2672C150.945 45.1608 151.086 45.1304 151.192 45.2C151.3 45.2686 151.329 45.4114 151.261 45.5164Z" fill="#009EF3"/>
<path d="M153.446 13.7754C153.446 13.7754 152.796 10.9021 153.441 9.87189C154.086 8.84167 155.253 9.06826 156.412 7.85842C157.572 6.64813 161.376 7.50887 162.995 7.11373C163.886 6.89635 164.852 6.95945 165.722 6.72734C166.967 6.39575 167.717 7.60743 167.488 8.85871C167.343 9.65498 167.019 10.857 165.903 11.2342C165.903 11.2342 154.902 9.90781 153.446 13.7754Z" fill="#2A365C"/>
<path d="M153.338 16.1081C153.592 20.311 156.355 23.0507 160.557 22.797C164.76 22.5432 167.501 19.2522 167.247 15.0493C166.993 10.8469 164.312 7.81289 160.109 8.06711C155.069 8.37153 153.084 11.9052 153.338 16.1081Z" fill="#2A365C"/>
<path d="M154.392 17.86C154.392 17.86 153.13 16.3738 152.339 17.7135C151.549 19.0532 153.006 22.7817 155.076 21.7248L154.392 17.86Z" fill="#FD857D"/>
<path d="M154.541 20.5786C154.462 20.5832 154.387 20.5357 154.36 20.4579C153.96 19.3038 152.715 18.9013 152.702 18.8976C152.608 18.8681 152.555 18.7668 152.585 18.6724C152.614 18.5775 152.715 18.5246 152.809 18.5541C152.867 18.572 154.239 19.0114 154.7 20.34C154.733 20.434 154.683 20.5362 154.589 20.5689C154.573 20.5744 154.557 20.5777 154.541 20.5786Z" fill="#F05B56"/>
<path d="M153.277 20.0615C153.244 20.0633 153.21 20.0564 153.178 20.0389C153.092 19.9901 153.061 19.8805 153.11 19.7939C153.118 19.7796 153.313 19.4384 153.751 19.2095C153.839 19.1634 153.948 19.1975 153.994 19.2859C154.04 19.3739 154.006 19.4826 153.917 19.5286C153.579 19.7055 153.425 19.9675 153.423 19.9703C153.392 20.0255 153.336 20.0578 153.277 20.0615Z" fill="#F05B56"/>
<path d="M166.425 17.1331C166.425 17.1331 167.499 15.5056 168.445 16.7407C169.391 17.9759 168.393 21.8523 166.211 21.0523L166.425 17.1331Z" fill="#FD857D"/>
<path d="M166.604 19.8487C166.683 19.8441 166.752 19.7874 166.769 19.7068C167.027 18.5131 168.215 17.9637 168.227 17.9582C168.317 17.9172 168.358 17.8108 168.317 17.7205C168.276 17.6298 168.17 17.5893 168.079 17.6303C168.024 17.6551 166.715 18.2561 166.417 19.6308C166.396 19.728 166.458 19.8238 166.555 19.845C166.572 19.8487 166.588 19.8496 166.604 19.8487Z" fill="#F05B56"/>
<path d="M167.796 19.1835C167.829 19.1816 167.862 19.1701 167.891 19.1489C167.972 19.09 167.989 18.9776 167.93 18.8975C167.92 18.8841 167.686 18.5691 167.223 18.3946C167.131 18.3591 167.027 18.4066 166.992 18.4996C166.957 18.5926 167.004 18.6962 167.097 18.7312C167.454 18.8662 167.639 19.1075 167.64 19.1103C167.677 19.1614 167.737 19.1872 167.796 19.1835Z" fill="#F05B56"/>
<path d="M163.712 24.4404L163.941 28.2219C163.941 28.2219 162.929 30.2156 161.412 30.4389C159.897 30.6641 158.435 28.9546 158.435 28.9546L158.198 25.0405L163.712 24.4404Z" fill="#FBA691"/>
<path d="M163.712 24.4404L163.814 26.1182C162.859 27.3156 161.059 27.7089 158.346 27.4745L158.199 25.0405L163.712 24.4404Z" fill="#FD857D"/>
<path d="M153.767 17.8263C153.796 18.0446 153.828 18.2647 153.863 18.4881C153.954 19.0476 154.065 19.6219 154.203 20.1916C154.208 20.2119 154.211 20.2312 154.216 20.2487C154.893 23.0064 156.2 25.6785 158.713 26.4089C164.406 28.0618 166.108 23.1635 166.735 20.3293C166.804 20.0148 166.863 19.6657 166.911 19.2945C166.913 19.2802 166.914 19.2646 166.917 19.2475C166.969 18.8303 167.01 18.3872 167.039 17.9313C167.061 17.5937 167.077 17.2515 167.088 16.9066C167.119 16.0693 167.121 15.2312 167.112 14.4878C167.09 12.7898 165.982 11.2931 164.359 10.781C162.02 10.0404 158.508 9.55409 155.332 11.6173C154.159 12.3786 153.475 13.7003 153.532 15.0976C153.564 15.8685 153.632 16.814 153.767 17.8263Z" fill="#FBA691"/>
<path d="M158.215 17.9289C158.239 18.3323 158.051 18.6722 157.794 18.6879C157.538 18.7035 157.31 18.3885 157.285 17.9851C157.261 17.5816 157.449 17.2418 157.706 17.2261C157.962 17.2109 158.19 17.5255 158.215 17.9289Z" fill="#2A365C"/>
<path d="M163.912 17.5852C163.937 17.9886 163.749 18.3285 163.492 18.3441C163.235 18.3598 163.007 18.0448 162.983 17.6414C162.959 17.2379 163.147 16.8981 163.404 16.8824C163.66 16.8667 163.888 17.1813 163.912 17.5852Z" fill="#2A365C"/>
<path d="M164.566 15.0502C164.566 15.0502 163.065 14.5593 161.965 15.1152L162.116 15.736C162.116 15.736 163.765 15.4956 164.62 15.7834C164.679 15.5375 164.676 15.2925 164.566 15.0502Z" fill="#2A365C"/>
<path d="M155.872 15.5754C155.872 15.5754 157.303 14.9076 158.461 15.3267L158.386 15.9613C158.386 15.9613 156.721 15.9212 155.906 16.3099C155.817 16.0732 155.792 15.8296 155.872 15.5754Z" fill="#2A365C"/>
<path d="M160.795 20.8765C160.497 20.9313 160.179 20.8701 160.13 20.8595C160.033 20.8392 159.97 20.7439 159.991 20.6467C160.01 20.5496 160.106 20.4869 160.203 20.5072C160.375 20.5427 160.778 20.574 160.926 20.4436C160.954 20.4183 160.991 20.3723 160.982 20.2626C160.932 19.6326 160.382 17.5924 160.376 17.5717C160.35 17.4759 160.407 17.3769 160.503 17.3511C160.599 17.3249 160.698 17.382 160.723 17.4778C160.746 17.563 161.288 19.5714 161.34 20.2341C161.36 20.4837 161.255 20.6325 161.163 20.7135C161.062 20.8024 160.931 20.8512 160.795 20.8765Z" fill="#FD857D"/>
<path d="M158.405 22.1026C158.596 22.8326 159.166 24.1617 160.81 24.0627C162.458 23.9632 162.845 22.6935 162.952 21.8281L158.405 22.1026Z" fill="#FEFDFF"/>
<path d="M167.081 17.1253L166.266 17.1746C166.307 16.3516 165.95 15.3822 165.665 14.7388C165.019 13.2798 166.163 12.5503 165.161 11.8609C164.158 11.1696 161.794 11.6348 160.133 11.6813C158.463 11.7283 155.784 11.9134 155.143 12.1036C154.5 12.292 154.923 13.3531 155.213 14.1774C155.504 14.9999 154.52 15.9901 154.398 16.8679C154.363 17.1198 154.396 17.4892 154.46 17.8875L153.782 17.9285C153.638 16.8776 153.566 15.8952 153.532 15.0971C153.475 13.6998 154.159 12.3781 155.332 11.6168C158.509 9.55362 162.021 10.039 164.359 10.7796C165.982 11.2926 167.091 12.7889 167.113 14.4874C167.123 15.2952 167.118 16.2144 167.081 17.1253Z" fill="#2A365C"/>
<path d="M161.33 18.0269C161.258 16.8466 162.16 15.8288 163.341 15.7574C164.521 15.686 165.539 16.5882 165.61 17.7686C165.682 18.9489 164.78 19.9667 163.599 20.0381C162.419 20.1095 161.401 19.2073 161.33 18.0269ZM161.664 18.0067C161.724 19.0028 162.583 19.7645 163.579 19.7042C164.576 19.6439 165.337 18.7845 165.277 17.7884C165.217 16.7922 164.357 16.0305 163.361 16.0908C162.364 16.1511 161.603 17.0105 161.664 18.0067Z" fill="#FEFDFF"/>
<path d="M155.48 18.3804C155.408 17.2001 156.31 16.1823 157.49 16.1109C158.671 16.0395 159.688 16.9417 159.76 18.1221C159.831 19.3024 158.929 20.3202 157.749 20.3916C156.569 20.4625 155.551 19.5603 155.48 18.3804ZM155.813 18.3602C155.874 19.3563 156.733 20.118 157.729 20.0577C158.725 19.9974 159.487 19.138 159.427 18.1419C159.366 17.1457 158.507 16.384 157.511 16.4443C156.515 16.5047 155.753 17.364 155.813 18.3602Z" fill="#FEFDFF"/>
<path d="M165.207 17.1007C165.249 17.098 165.291 17.0796 165.322 17.0455C165.331 17.0353 166.246 16.0337 167.54 16.2538C167.63 16.2695 167.717 16.2082 167.733 16.117C167.748 16.0258 167.687 15.9397 167.596 15.9241C166.117 15.6721 165.114 16.7756 165.073 16.8226C165.011 16.8917 165.017 16.9971 165.086 17.0584C165.12 17.0897 165.164 17.1035 165.207 17.1007Z" fill="#FEFDFF"/>
<path d="M155.761 17.6717C155.815 17.6685 155.867 17.6386 155.896 17.5875C155.942 17.5073 155.914 17.4055 155.834 17.3595C155.767 17.3217 154.194 16.4361 152.918 16.7262C152.828 16.7465 152.772 16.8363 152.792 16.9261C152.813 17.0159 152.902 17.0726 152.992 17.0518C154.14 16.7907 155.653 17.6409 155.668 17.6496C155.697 17.6667 155.729 17.6736 155.761 17.6717Z" fill="#FEFDFF"/>
<path d="M159.614 17.6481C159.617 17.6426 159.981 17.0826 160.503 17.0513C161.019 17.02 161.409 17.5335 161.413 17.539L161.682 17.3396C161.661 17.3124 161.182 16.6755 160.483 16.7178C159.789 16.7598 159.35 17.4404 159.332 17.4694L159.614 17.6481Z" fill="#FEFDFF"/>
<path d="M150.504 78.6508L148.611 81.2344C148.611 81.2344 147.515 80.5482 146.028 79.3554C146.023 79.3508 146.023 79.3508 146.018 79.3462C143.752 77.5363 140.579 74.5566 138.958 71.0519C136.932 66.6722 137.526 63.1261 137.526 63.1261C137.793 60.5286 139.534 55.2508 140.92 51.3317C141.427 49.9086 141.887 48.6697 142.21 47.7993L146.442 48.7711L148.252 49.8856L147.557 51.7231L142.887 64.1116C143.297 67.7453 145.139 71.319 146.912 74.0086C148.745 76.7994 150.504 78.6508 150.504 78.6508Z" fill="#FBA691"/>
<path d="M150.504 78.651L148.611 81.2346C148.611 81.2346 147.515 80.5484 146.027 79.3557C146.023 79.351 146.023 79.351 146.018 79.3464C145.691 77.3937 145.889 74.6351 146.912 74.0088C148.745 76.7997 150.504 78.651 150.504 78.651Z" fill="#FD857D"/>
<path d="M149.493 75.6699C149.874 75.6947 151.905 75.7956 151.685 75.1006C151.443 74.3343 149.45 73.4367 149.45 73.4367C149.45 73.4367 149.438 73.3976 149.458 73.346L149.436 73.1825L149.348 71.5352C148.963 71.5379 148.609 71.613 148.418 71.6724C147.544 71.9427 147.664 73.941 147.664 73.941C147.664 73.941 146.562 74.3348 146.602 75.1416C146.642 75.9485 147.53 76.0696 147.53 76.0696C147.53 76.0696 146.318 76.6748 146.601 77.3605C146.885 78.0463 147.803 78.248 147.803 78.248C147.803 78.248 146.764 78.9337 147.127 79.4177C147.49 79.9018 148.337 80.144 148.337 80.144C148.337 80.144 147.612 81.1259 148.349 81.661C149.086 82.1962 150.171 82.0801 150.867 81.8379C151.565 81.5961 151.444 80.7086 150.072 80.063C150.072 80.063 151.282 80.1841 151.887 79.1755C152.392 78.3345 151.105 77.9712 150.007 77.8266C150.869 77.8846 152.358 77.8602 152.613 77.0372C152.948 75.9577 149.959 75.703 149.493 75.6699Z" fill="#FBA691"/>
<path d="M148.252 49.8856L147.557 51.7231C146.152 51.8106 143.638 51.8521 140.92 51.3317C141.427 49.9086 141.888 48.6697 142.21 47.7993L146.442 48.7711L148.252 49.8856Z" fill="#FD857D"/>
<path d="M148.834 34.9448C148.834 34.9448 143.683 40.113 139.921 49.1271C142.869 50.0804 145.66 50.7551 148.251 51.0775C148.593 50.477 149.945 46.6222 150.963 43.8411L148.834 34.9448Z" fill="#61B3FF"/>
</svg>
