<svg width="19" height="19" viewBox="0 0 19 19" fill="none" xmlns="http://www.w3.org/2000/svg">
<path d="M6.0648 14.9638H4.61169C2.38665 14.8049 1.3877 13.0945 1.3877 11.5733C1.3877 10.0521 2.38666 8.3341 4.57386 8.18273C4.88415 8.15246 5.15659 8.39464 5.1793 8.7125C5.202 9.0228 4.96743 9.29525 4.64956 9.31796C3.18134 9.42391 2.52292 10.5289 2.52292 11.5808C2.52292 12.6328 3.18134 13.7378 4.64956 13.8437H6.0648C6.3751 13.8437 6.63242 14.101 6.63242 14.4113C6.63242 14.7216 6.3751 14.9638 6.0648 14.9638Z" fill="#06090F"/>
<path d="M13.0353 14.9636C13.0202 14.9636 13.0126 14.9636 12.9975 14.9636C12.6872 14.9636 12.3996 14.7062 12.3996 14.396C12.3996 14.0705 12.6418 13.8283 12.9597 13.8283C13.8905 13.8283 14.723 13.5029 15.3739 12.9202C16.5545 11.8909 16.6302 10.4075 16.3123 9.36314C15.9945 8.3263 15.109 7.1381 13.5651 6.9489C13.3154 6.91863 13.1186 6.72943 13.0732 6.47968C12.7704 4.66332 11.7942 3.40701 10.3108 2.95292C8.78204 2.47613 6.99593 2.94535 5.88341 4.11085C4.80117 5.2385 4.55143 6.82025 5.17958 8.56092C5.28554 8.85608 5.13421 9.1815 4.83905 9.28745C4.5439 9.39341 4.21845 9.24205 4.11249 8.94689C3.34811 6.81267 3.69625 4.76928 5.06609 3.33133C6.4662 1.86311 8.71393 1.28035 10.6438 1.87067C12.4148 2.41558 13.6635 3.87623 14.1176 5.90449C15.6615 6.25263 16.9027 7.4257 17.3946 9.04528C17.9319 10.8087 17.4476 12.625 16.1231 13.7754C15.2831 14.5322 14.1857 14.9636 13.0353 14.9636Z" fill="#06090F"/>
<path d="M9.5011 17.1887C7.9799 17.1887 6.5571 16.3789 5.77758 15.0696C5.69433 14.941 5.61109 14.7896 5.54297 14.6231C5.28566 14.0858 5.14941 13.4728 5.14941 12.837C5.14941 10.4379 7.102 8.48535 9.5011 8.48535C11.9002 8.48535 13.8528 10.4379 13.8528 12.837C13.8528 13.4803 13.7166 14.0858 13.4441 14.6458C13.3836 14.7896 13.3003 14.941 13.2095 15.0848C12.4451 16.3789 11.0223 17.1887 9.5011 17.1887ZM9.5011 9.62057C7.73015 9.62057 6.28464 11.0661 6.28464 12.837C6.28464 13.3063 6.38303 13.7452 6.57223 14.1463C6.63277 14.275 6.68574 14.3809 6.74628 14.4793C7.32146 15.4556 8.37344 16.0535 9.49352 16.0535C10.6136 16.0535 11.6656 15.4556 12.2332 14.4945C12.3013 14.3809 12.3619 14.275 12.4073 14.169C12.6116 13.7528 12.71 13.3138 12.71 12.8446C12.7176 11.0661 11.272 9.62057 9.5011 9.62057Z" fill="#06090F"/>
<path d="M9.31596 14.6247C9.17216 14.6247 9.02839 14.5717 8.91487 14.4582L8.16558 13.7089C7.94611 13.4895 7.94611 13.1262 8.16558 12.9067C8.38506 12.6873 8.74833 12.6873 8.96781 12.9067L9.33111 13.27L10.542 12.1499C10.7766 11.938 11.1323 11.9531 11.3442 12.1802C11.5561 12.4072 11.541 12.7705 11.314 12.9824L9.70194 14.4733C9.58842 14.5717 9.45218 14.6247 9.31596 14.6247Z" fill="#06090F"/>
</svg>
