<svg width="184" height="163" viewBox="0 0 184 163" fill="none" xmlns="http://www.w3.org/2000/svg">
<path d="M168.544 123.805H13.9839C13.8367 123.805 13.7263 123.694 13.7263 123.547C13.7263 123.4 13.8367 123.29 13.9839 123.29H168.544C168.691 123.29 168.802 123.4 168.802 123.547C168.802 123.694 168.691 123.805 168.544 123.805Z" fill="#D1D3D4"/>
<path d="M157.115 125.013C156.475 130.003 152.227 133.741 147.196 133.741H73.6304C67.6025 133.741 62.9447 128.447 63.7117 122.468L75.1668 33.1724C75.807 28.1824 80.0546 24.4448 85.0855 24.4448H158.651C164.679 24.4448 169.337 29.7383 168.57 35.7172L157.115 125.013Z" fill="white"/>
<path d="M156.4 37.7664H97.0049C95.9009 37.8032 94.9809 36.92 94.9441 35.816C94.9441 35.7056 94.9441 35.5584 94.9809 35.448L95.1281 34.2336C95.3121 32.9088 96.4161 31.952 97.7409 31.9152H157.136C158.24 31.8784 159.16 32.7616 159.197 33.8656C159.197 33.976 159.197 34.1232 159.16 34.2336L159.013 35.448C158.829 36.736 157.725 37.7296 156.4 37.7664Z" fill="#EFF0F2"/>
<path d="M88.6513 32.8716H83.3521C83.2049 32.8716 83.0945 32.7612 83.0945 32.614C83.0945 32.4668 83.2049 32.3564 83.3521 32.3564H88.6513C88.7985 32.3564 88.9089 32.4668 88.9089 32.614C88.9089 32.7612 88.7985 32.8716 88.6513 32.8716Z" fill="#231F20"/>
<path d="M88.3569 35.19H83.0576C82.9104 35.19 82.8 35.0796 82.8 34.9324C82.8 34.7852 82.9104 34.6748 83.0576 34.6748H88.3569C88.5041 34.6748 88.6144 34.7852 88.6144 34.9324C88.6144 35.0796 88.5041 35.19 88.3569 35.19Z" fill="#231F20"/>
<path d="M88.0624 37.5084H82.7632C82.616 37.5084 82.5056 37.398 82.5056 37.2508C82.5056 37.1036 82.616 36.9932 82.7632 36.9932H88.0624C88.2096 36.9932 88.32 37.1036 88.32 37.2508C88.32 37.398 88.2096 37.5084 88.0624 37.5084Z" fill="#231F20"/>
<path d="M152.61 66.3969H84.0143C80.6655 66.3969 78.3103 63.6737 78.7519 60.3617L79.8928 51.5665C80.3344 48.2177 83.352 45.5312 86.7008 45.5312H155.296C158.645 45.5312 161 48.2545 160.558 51.5665L159.418 60.3617C158.939 63.7473 156.032 66.2865 152.61 66.3969Z" fill="white"/>
<path d="M152.61 66.6173H84.0145C82.3953 66.6541 80.8497 65.9917 79.7825 64.7773C78.7153 63.5261 78.2369 61.9069 78.4945 60.2877L79.6353 51.4557C80.0769 47.9965 83.2417 45.1997 86.7009 45.1997H155.296C156.915 45.1629 158.461 45.8253 159.528 47.0397C160.595 48.2909 161.074 49.9101 160.816 51.5293L159.675 60.3245C159.234 63.8205 156.069 66.6173 152.61 66.6173ZM86.7009 45.7517C83.3889 45.8253 80.6289 48.2909 80.1505 51.5661L79.0097 60.3613C78.7889 61.8333 79.2305 63.3053 80.1873 64.4461C81.1441 65.5501 82.5793 66.1389 84.0145 66.1021H152.61C155.811 66.1021 158.755 63.4893 159.16 60.2877L160.301 51.4557C160.522 49.9837 160.08 48.5117 159.123 47.3709C158.13 46.3037 156.768 45.7149 155.296 45.7149H86.7009V45.7517Z" fill="#B0B5BB"/>
<path d="M97.5678 60.879C100.681 57.9588 101.118 53.3685 98.5458 50.6264C95.9733 47.8843 91.3644 48.0286 88.2518 50.9488C85.1391 53.869 84.7012 58.4593 87.2738 61.2014C89.8463 63.9435 94.4551 63.7992 97.5678 60.879Z" fill="#426DC2"/>
<path d="M97.888 53.6271C97.8512 53.7007 97.7776 53.7743 97.704 53.8479L91.5584 59.2943C91.3376 59.4783 91.1904 59.4783 91.0432 59.2943L88.3936 56.1295C88.2464 55.9455 88.2832 55.7983 88.4672 55.6511L89.3136 54.9519C89.4976 54.8047 89.6448 54.8047 89.7552 54.9519C90.2704 55.5775 90.8224 56.2031 91.3376 56.7919C91.4848 56.9759 91.632 56.9759 91.8528 56.7919L96.6368 52.5599C96.8576 52.3759 97.0048 52.3759 97.152 52.5599C97.3728 52.7807 97.5568 53.0383 97.7776 53.2959C97.8144 53.3695 97.8512 53.4431 97.888 53.5167V53.6271Z" fill="white"/>
<path d="M151.101 52.7805H107.014C106.573 52.7805 106.242 52.4493 106.242 52.0077C106.242 51.5661 106.573 51.2349 107.014 51.2349H151.101C151.542 51.2349 151.874 51.5661 151.874 52.0077C151.874 52.4125 151.506 52.7805 151.101 52.7805Z" fill="#EFF0F2"/>
<path d="M141.128 60.2141H106.021C105.579 60.2141 105.248 59.8829 105.248 59.4413C105.248 58.9997 105.579 58.6685 106.021 58.6685H141.128C141.57 58.6685 141.901 58.9997 141.901 59.4413C141.901 59.8461 141.57 60.2141 141.128 60.2141Z" fill="#EFF0F2"/>
<path d="M149.518 90.5372H80.9233C77.5745 90.5372 75.2193 87.8508 75.6609 84.502L76.8017 75.67C77.3169 72.2844 80.1873 69.7084 83.6097 69.6348H152.205C155.554 69.6348 157.909 72.3212 157.467 75.67L156.326 84.502C155.811 87.9244 152.941 90.4636 149.518 90.5372Z" fill="white"/>
<path d="M149.518 90.795H80.9231C79.3039 90.8318 77.7583 90.1694 76.6911 88.955C75.6239 87.7038 75.1455 86.0846 75.4031 84.4654L76.5439 75.6334C76.9855 72.1742 80.1503 69.3774 83.6095 69.3774H152.205C153.824 69.3406 155.37 70.003 156.437 71.2174C157.504 72.4686 157.982 74.0878 157.725 75.707L156.584 84.5022C156.142 87.9982 152.941 90.795 149.518 90.795ZM83.6095 69.9294C80.2975 70.003 77.5375 72.4686 77.0591 75.7438L75.9184 84.5758C75.6976 86.0478 76.1391 87.5198 77.0959 88.6238C78.0895 89.691 79.4879 90.3166 80.9231 90.2798H149.518C152.72 90.2798 155.664 87.667 156.069 84.4654L157.21 75.6334C157.43 74.1614 156.989 72.6894 156.032 71.5486C155.075 70.4446 153.64 69.8558 152.205 69.8926L83.6095 69.9294Z" fill="#B0B5BB"/>
<path d="M88.909 87.5934C86.9954 87.6302 85.1554 86.8206 83.8674 85.3854C82.5794 83.9134 82.0274 81.963 82.3218 80.0126C82.837 75.891 86.6274 72.5422 90.749 72.5422C92.6626 72.5054 94.5026 73.315 95.7906 74.7502C97.0786 76.2222 97.6306 78.1726 97.3362 80.0862C96.821 84.2446 93.0306 87.5934 88.909 87.5934ZM90.749 73.0942C86.885 73.0942 83.3154 76.259 82.837 80.123C82.5794 81.8894 83.0946 83.7294 84.309 85.0542C85.4866 86.379 87.1794 87.115 88.9458 87.0782C92.8098 87.0782 96.3794 83.9134 96.8578 80.0494C97.1154 78.283 96.6002 76.4798 95.4226 75.1182C94.245 73.7934 92.5154 73.0574 90.749 73.0942Z" fill="#EFF0F2"/>
<path d="M94.7969 77.8048C94.7601 77.8784 94.6865 77.952 94.6129 78.0256L88.4673 83.472C88.2465 83.656 88.0993 83.656 87.9521 83.472L85.3025 80.3072C85.1553 80.1232 85.1921 79.976 85.3761 79.8288L86.2225 79.1296C86.4065 78.9824 86.5537 78.9824 86.6641 79.1296L88.2465 80.9696C88.3937 81.1536 88.5409 81.1536 88.7617 80.9696L93.5457 76.7376C93.7665 76.5536 93.8769 76.5536 94.0609 76.7376C94.2817 76.9952 94.4657 77.216 94.6865 77.4736C94.7233 77.5472 94.7601 77.6208 94.7969 77.6944V77.8048Z" fill="white"/>
<path d="M148.01 76.9216H103.887C103.445 76.9216 103.114 76.5904 103.114 76.1488C103.114 75.7072 103.445 75.376 103.887 75.376H147.973C148.415 75.376 148.746 75.7072 148.746 76.1488C148.783 76.5904 148.415 76.9216 148.01 76.9216Z" fill="#EFF0F2"/>
<path d="M138.037 84.3552H102.93C102.488 84.3552 102.157 84.024 102.157 83.5824C102.157 83.1408 102.488 82.8096 102.93 82.8096H138.037C138.478 82.8096 138.81 83.1408 138.81 83.5824C138.81 84.024 138.478 84.3552 138.037 84.3552Z" fill="#EFF0F2"/>
<path d="M146.39 114.715H77.832C74.4832 114.715 72.128 111.992 72.5696 108.68L73.7104 99.8477C74.2256 96.4621 77.096 93.8861 80.5184 93.8125H149.114C152.462 93.8125 154.818 96.5357 154.376 99.8477L153.235 108.68C152.72 112.065 149.85 114.641 146.39 114.715Z" fill="white"/>
<path d="M146.39 114.973H77.8321C76.2129 115.01 74.6673 114.347 73.6001 113.133C72.5329 111.882 72.0545 110.262 72.3121 108.643L73.4529 99.8112C73.8945 96.352 77.0593 93.5552 80.5185 93.5552H149.114C150.733 93.5184 152.278 94.1808 153.346 95.3952C154.413 96.6464 154.891 98.2656 154.634 99.8848L153.493 108.717C153.051 112.176 149.85 114.973 146.39 114.973ZM80.5185 94.0704C77.3169 94.0704 74.3729 96.6832 73.9681 99.8848L72.8273 108.717C72.6065 110.189 73.0481 111.661 74.0049 112.802C74.9985 113.869 76.3969 114.494 77.8321 114.458H146.427C149.629 114.458 152.573 111.845 152.978 108.643L154.118 99.8112C154.339 98.3392 153.898 96.8672 152.941 95.7264C151.947 94.6592 150.549 94.0336 149.114 94.0704H80.5185Z" fill="#B0B5BB"/>
<path d="M85.8177 111.771C83.9041 111.808 82.0641 110.998 80.7761 109.6C79.4881 108.128 78.9361 106.177 79.2305 104.264C79.7457 100.142 83.5361 96.7932 87.6577 96.7932C89.5713 96.7564 91.4113 97.566 92.6993 99.0012C93.9505 100.473 94.5393 102.424 94.2449 104.337C93.6929 108.422 89.9393 111.771 85.8177 111.771ZM87.6577 97.2716C83.7937 97.2716 80.2241 100.436 79.7457 104.3C79.4881 106.067 80.0033 107.87 81.1809 109.268C82.3585 110.593 84.0513 111.329 85.8177 111.292C89.6817 111.292 93.2513 108.128 93.7297 104.264C93.9873 102.497 93.4721 100.694 92.2945 99.3324C91.1169 97.9708 89.4241 97.2348 87.6577 97.2716Z" fill="#EFF0F2"/>
<path d="M91.669 101.945C91.6322 102.019 91.5586 102.093 91.485 102.166L85.3394 107.613C85.1186 107.797 84.9714 107.797 84.8242 107.613L82.1746 104.448C82.0274 104.264 82.0642 104.117 82.2482 103.969L83.0946 103.27C83.2786 103.123 83.4258 103.123 83.5362 103.27L85.1186 105.11C85.2658 105.294 85.413 105.294 85.6338 105.11L90.4178 100.878C90.6386 100.694 90.7858 100.694 90.933 100.878C91.1538 101.099 91.3378 101.357 91.5586 101.614C91.5954 101.688 91.6322 101.761 91.669 101.798V101.945Z" fill="white"/>
<path d="M144.918 101.099H100.795C100.354 101.099 100.022 100.768 100.022 100.326C100.022 99.8844 100.354 99.5532 100.795 99.5532H144.882C145.323 99.5532 145.654 99.8844 145.654 100.326C145.654 100.768 145.323 101.099 144.918 101.099Z" fill="#EFF0F2"/>
<path d="M134.946 108.532H99.8385C99.3969 108.532 99.0657 108.201 99.0657 107.76C99.0657 107.318 99.3969 106.987 99.8385 106.987H134.946C135.387 106.987 135.718 107.318 135.718 107.76C135.718 108.201 135.387 108.532 134.946 108.532Z" fill="#EFF0F2"/>
<path d="M142.343 128.294C142.306 128.294 142.232 128.294 142.195 128.258L138.184 125.461C138.111 125.424 138.074 125.314 138.074 125.24C138.074 125.166 138.111 125.056 138.184 125.019L142.931 122.222C143.042 122.149 143.226 122.186 143.299 122.296C143.373 122.406 143.336 122.554 143.226 122.664C143.226 122.664 143.226 122.664 143.189 122.664L138.81 125.24L142.49 127.816C142.6 127.89 142.637 128.074 142.563 128.184C142.527 128.258 142.416 128.294 142.343 128.294Z" fill="#EFF0F2"/>
<path d="M145.802 128.294C145.654 128.294 145.544 128.184 145.544 128.037C145.544 127.963 145.581 127.853 145.654 127.816L150.034 125.24L146.354 122.664C146.243 122.59 146.206 122.443 146.28 122.333C146.28 122.333 146.28 122.333 146.28 122.296C146.354 122.186 146.501 122.149 146.648 122.222L150.659 125.019C150.733 125.056 150.77 125.166 150.77 125.24C150.77 125.314 150.733 125.424 150.622 125.461L145.875 128.258C145.912 128.258 145.875 128.294 145.802 128.294Z" fill="#EFF0F2"/>
<path d="M45.5217 82.4045C45.5217 82.4045 49.8641 90.0589 54.0961 90.7581C59.2849 91.6045 66.9025 87.0413 66.9025 87.0413L62.5969 82.8461L53.8017 82.8093L49.0177 73.0205L45.5217 82.4045Z" fill="#426DC2"/>
<path d="M52.6609 132.342L52.9553 135.654L57.5553 135.286L57.1137 131.312L52.6609 132.342Z" fill="white"/>
<path d="M52.9553 135.912C52.8081 135.912 52.6977 135.801 52.6977 135.691L52.3665 132.379C52.3665 132.232 52.4401 132.121 52.5505 132.085L57.0401 131.054C57.1137 131.054 57.1873 131.054 57.2609 131.091C57.3345 131.128 57.3713 131.201 57.3713 131.275L57.8129 135.249C57.8129 135.323 57.8129 135.397 57.7393 135.433C57.7025 135.47 57.6289 135.507 57.5553 135.507L52.9553 135.912ZM52.9185 132.526L53.2129 135.36L57.2977 135.029L56.9297 131.606L52.9185 132.526Z" fill="#231F20"/>
<path d="M20.4239 125.019L17.4431 127.374L19.1359 130.539L22.0799 129.251L20.4239 125.019Z" fill="white"/>
<path d="M19.136 130.797C19.0256 130.797 18.952 130.76 18.9152 130.649L17.2592 127.485C17.1856 127.374 17.2224 127.227 17.3328 127.153L20.2768 124.798C20.3504 124.761 20.424 124.725 20.4976 124.761C20.5712 124.798 20.6448 124.835 20.6816 124.909L22.3376 129.141C22.3744 129.288 22.3376 129.398 22.1904 129.472L19.2464 130.76C19.2096 130.797 19.1728 130.797 19.136 130.797ZM17.7744 127.448L19.2464 130.208L21.7488 129.104L20.3136 125.461L17.7744 127.448Z" fill="#231F20"/>
<path d="M29.2929 95.0273L29.5873 116.114L19.3201 125.019L21.4545 130.282C21.4545 130.282 36.4689 123.069 38.7873 119.831C41.1057 116.592 41.4737 108.717 41.4737 108.717L49.1649 116.445L52.1089 133.189L57.9601 132.858C57.9601 132.858 57.2241 120.567 57.2241 116.003C57.2241 111.44 45.5953 95.7633 45.5953 95.7633L29.2929 95.0273Z" fill="#231F20"/>
<path d="M52.072 133.409C51.9616 133.409 51.8512 133.336 51.8144 133.189L48.8704 116.518L41.6576 109.269C41.5472 111.145 40.9584 117.144 38.9712 119.941C36.616 123.179 22.1904 130.171 21.5648 130.465C21.4912 130.502 21.4176 130.502 21.3808 130.465C21.3072 130.429 21.2704 130.392 21.2336 130.318L19.0992 125.056C19.0624 124.945 19.0992 124.835 19.1728 124.761L29.3664 115.929L29.072 94.9534C29.072 94.8798 29.1088 94.8062 29.1456 94.7694C29.1824 94.7326 29.256 94.6958 29.3296 94.6958L45.5952 95.4318C45.6688 95.4318 45.7424 95.4686 45.7792 95.5422C46.2576 96.2046 57.4448 111.329 57.4448 115.929C57.4448 120.419 58.1808 132.637 58.1808 132.747C58.1808 132.894 58.0704 133.005 57.96 133.005L52.072 133.409ZM41.4368 108.459C41.5104 108.459 41.584 108.496 41.6208 108.533L49.312 116.224C49.3488 116.261 49.3856 116.297 49.3856 116.371L52.2928 132.894L57.6656 132.6C57.5552 130.797 56.9296 120.161 56.9296 116.003C56.9296 111.771 46.4048 97.3454 45.448 96.0206L29.5504 95.3214L29.8448 116.113C29.8448 116.187 29.808 116.261 29.7712 116.297L19.6144 125.093L21.5648 129.913C23.5152 128.957 36.432 122.59 38.5296 119.646C40.8112 116.481 41.1792 108.753 41.1792 108.68C41.1792 108.569 41.2528 108.496 41.3264 108.459C41.3632 108.459 41.4 108.459 41.4368 108.459Z" fill="#231F20"/>
<path d="M28.2256 97.0877L28.6304 86.7837C28.6304 86.7837 28.4464 74.0141 33.1568 71.7325C37.8672 69.4509 47.2144 70.4445 49.0544 73.0205C50.8944 75.5965 46.552 97.0877 46.552 97.0877H28.2256Z" fill="#426DC2"/>
<path d="M47.9504 62.0911C47.9136 60.9871 47.4352 59.9935 46.6624 59.2207C45.0064 57.7119 41.2896 57.1231 39.928 59.3679C39.4864 59.4047 39.0816 59.5519 38.7136 59.8463C38.3088 60.2511 37.9776 60.7663 37.8304 61.3551C37.0576 63.5263 37.6832 65.8447 38.5296 67.9791C38.7872 68.7151 39.192 69.3407 39.7072 69.8927C40.9952 71.1071 42.7984 70.4447 44.2336 69.8191C45.1904 69.4511 46.0736 68.8255 46.7728 68.0159C47.5824 67.0223 47.9872 65.1823 47.9872 63.9311C48.024 63.3423 47.9872 62.7167 47.9504 62.0911Z" fill="white"/>
<path d="M41.5103 70.8127C40.7743 70.8495 40.0751 70.5551 39.5599 70.0399C39.0079 69.4879 38.5663 68.7887 38.3087 68.0159C37.5359 66.1023 36.7631 63.5999 37.6095 61.2079C37.7935 60.5823 38.1247 60.0303 38.5663 59.5887C38.8975 59.2943 39.3391 59.1103 39.7807 59.0367C40.3695 58.2271 41.2527 57.7119 42.2463 57.6015C43.9023 57.4175 45.5583 57.8959 46.8463 58.9631C47.6559 59.6623 48.0975 60.6559 48.2447 61.9807C48.3183 62.6063 48.3183 63.2319 48.3183 63.8575C48.3183 65.1823 47.8767 67.0959 47.0303 68.0895C46.3311 68.8991 45.4111 69.5615 44.4175 69.9663C43.6079 70.3711 42.5407 70.8127 41.5103 70.8127ZM42.9087 58.1535C42.6879 58.1535 42.5039 58.1535 42.2831 58.1903C41.3999 58.2639 40.5903 58.7423 40.1119 59.4783C40.0751 59.5519 40.0015 59.5887 39.8911 59.5887C39.5231 59.6255 39.1551 59.7727 38.8607 60.0303C38.4927 60.3983 38.1983 60.8767 38.0511 61.4287C37.2783 63.6367 38.0143 66.0287 38.7503 67.8687C39.0079 68.5679 39.3759 69.1935 39.8911 69.7087C41.0319 70.7759 42.6143 70.2607 44.1599 69.5983C45.0799 69.2303 45.9263 68.6415 46.5887 67.8687C47.3247 66.9487 47.7295 65.1823 47.7663 63.9679C47.7663 63.3423 47.7663 62.7535 47.6927 62.1279C47.5455 60.9135 47.1775 60.0671 46.4783 59.4047C45.4479 58.5951 44.1967 58.1535 42.9087 58.1535Z" fill="#231F20"/>
<path d="M44.4913 70.3344L44.1601 73.4624C44.1601 73.4624 43.4241 75.1184 41.5105 74.272C40.3697 73.7936 39.6337 72.6896 39.5601 71.4752L40.1857 65.8816C40.1857 65.8816 41.8049 65.3296 41.9521 62.0176C41.9521 62.0176 43.9025 62.0176 46.9569 62.1648C46.9569 62.1648 47.3617 67.3168 46.8833 68.8256C46.4049 70.3344 44.4913 70.3344 44.4913 70.3344Z" fill="white"/>
<path d="M42.5409 74.7873C42.1729 74.7873 41.7681 74.6769 41.4369 74.5297C40.2225 74.0145 39.3761 72.8369 39.3025 71.5121L39.9281 65.8817C39.9281 65.7713 40.0017 65.6977 40.1121 65.6609C40.1121 65.6609 41.5841 65.1089 41.6945 62.0545C41.6945 61.9073 41.8049 61.7969 41.9521 61.7969C41.9521 61.7969 43.9393 61.7969 46.9569 61.9441C47.1041 61.9441 47.1777 62.0545 47.2145 62.1649C47.2513 62.3857 47.6193 67.3905 47.1041 68.9361C46.6993 70.1505 45.5217 70.5185 44.7857 70.5921L44.4913 73.4993C44.4913 73.5361 44.4913 73.5361 44.4913 73.5729C44.0865 74.3089 43.3505 74.7505 42.5409 74.7873ZM40.4065 66.0657L39.8177 71.5121C39.8913 72.6161 40.5905 73.6097 41.6209 74.0513C43.1665 74.7137 43.8289 73.6097 43.9393 73.3889L44.2705 70.2977C44.2705 70.1505 44.3809 70.0769 44.5281 70.0769C44.6017 70.0769 46.1473 70.0769 46.5889 68.7521C47.0305 67.4273 46.7361 63.4161 46.6625 62.4225C44.3809 62.3121 42.7617 62.3121 42.1729 62.2753C41.9889 64.9985 40.8481 65.8449 40.4065 66.0657Z" fill="#231F20"/>
<path d="M41.3632 65.9922C41.3264 65.6978 41.216 65.4401 41.032 65.2193C40.848 65.0353 40.6272 64.8514 40.3696 64.741C40.2592 64.6674 40.112 64.5938 39.9648 64.5938C39.8544 64.5938 39.744 64.5938 39.6704 64.6306C39.4496 64.7042 39.2288 64.8513 39.0816 65.0353C39.008 65.2193 38.9344 65.4034 38.9712 65.6242C38.9712 65.845 38.9712 66.0657 39.008 66.2497C39.2288 67.1329 40.0752 67.6482 40.9584 67.4642C40.9584 67.4642 40.9584 67.4642 40.9952 67.4642" fill="white"/>
<path d="M40.6272 67.7951C40.296 67.7951 39.9648 67.6847 39.6336 67.5375C39.192 67.2799 38.8976 66.8383 38.7872 66.3599C38.7504 66.1391 38.7136 65.8815 38.7136 65.6607C38.7136 65.4399 38.7504 65.1823 38.8608 64.9615C39.008 64.7039 39.2656 64.5199 39.56 64.4095C39.6704 64.3727 39.8176 64.3359 39.9648 64.3359C40.1488 64.3727 40.3328 64.4095 40.48 64.5199C40.7376 64.6671 40.9952 64.8511 41.1792 65.0351C41.4 65.2927 41.5104 65.6239 41.5472 65.9551C41.5472 66.1023 41.4368 66.2127 41.3264 66.2127C41.1792 66.2127 41.0688 66.1023 41.032 65.9919C41.032 65.7711 40.9216 65.5503 40.7744 65.3663C40.5904 65.1823 40.4064 65.0351 40.1856 64.9615C40.112 64.8879 40.0016 64.8511 39.8912 64.8511C39.8176 64.8511 39.744 64.8511 39.6704 64.8879C39.4864 64.9247 39.3392 65.0351 39.2288 65.1823C39.1552 65.3295 39.1184 65.4767 39.1552 65.6239C39.1552 65.8079 39.1552 65.9919 39.192 66.2127C39.376 66.9487 40.0752 67.3903 40.8112 67.2063C40.8112 67.2063 40.8112 67.2063 40.848 67.2063C40.9952 67.1695 41.1424 67.2431 41.1424 67.3903C41.1792 67.5375 41.1056 67.6847 40.9584 67.6847C40.9216 67.7583 40.7744 67.7951 40.6272 67.7951Z" fill="#231F20"/>
<path d="M44.344 71.8433C43.6816 71.6593 43.0928 71.2545 42.6512 70.7393C42.2832 70.3345 42.136 69.7825 42.2832 69.2305C42.8352 69.8929 43.6448 70.2977 44.4912 70.3345L44.344 71.8433Z" fill="#231F20"/>
<path d="M44.3439 72.1005H44.3071C43.5711 71.9165 42.9455 71.5117 42.4671 70.9229C42.0255 70.4445 41.8783 69.7821 42.0623 69.1565C42.0991 69.0829 42.1727 69.0093 42.2831 69.0093C42.3935 69.0093 42.4671 69.0461 42.5407 69.1197C43.0191 69.7085 43.7551 70.0765 44.5279 70.1133C44.6015 70.1133 44.6751 70.1501 44.7119 70.1869C44.7487 70.2605 44.7855 70.2973 44.7855 70.4077L44.6383 71.9165C44.6383 71.9901 44.6015 72.0637 44.5279 72.1005C44.4543 72.0637 44.4175 72.1005 44.3439 72.1005ZM42.4671 69.8189C42.5039 70.1133 42.6511 70.3709 42.8351 70.5917C43.2031 70.9965 43.6447 71.2909 44.1231 71.5117L44.1967 70.5917C43.5711 70.5181 42.9823 70.2605 42.4671 69.8189Z" fill="#231F20"/>
<path d="M45.1536 67.6113C44.896 67.6113 44.6384 67.5377 44.4176 67.4641C44.2704 67.4273 44.2336 67.2433 44.2704 67.1329C44.3072 66.9857 44.4912 66.9489 44.6016 66.9857C44.8224 67.0961 45.0432 67.0961 45.264 67.0961C45.1536 66.5073 44.9696 65.9553 44.6752 65.4033C44.6016 65.2929 44.6752 65.1089 44.7856 65.0721C44.896 64.9985 45.08 65.0721 45.1168 65.1825C46.0368 67.0961 45.7056 67.3537 45.5952 67.4641C45.5216 67.5377 45.3376 67.6113 45.1536 67.6113Z" fill="#231F20"/>
<path d="M44.3809 68.6414C44.0497 68.6414 43.7553 68.5678 43.4977 68.3838C43.2033 68.163 43.0193 67.8318 42.9825 67.427C42.9457 67.2798 43.0561 67.1694 43.2033 67.1326C43.3505 67.0958 43.4609 67.2062 43.4977 67.3534C43.4977 67.5742 43.6449 67.795 43.8289 67.9422C44.0497 68.0894 44.3441 68.1262 44.6017 68.0894C44.7489 68.0526 44.8593 68.163 44.8961 68.3102C44.9329 68.4574 44.8225 68.5678 44.6753 68.6046C44.5649 68.6414 44.4913 68.6414 44.3809 68.6414Z" fill="#231F20"/>
<path d="M44.0128 64.704C43.9392 64.704 43.8656 64.6672 43.8288 64.6304C43.7552 64.52 43.608 64.4464 43.4608 64.4464C43.2768 64.4464 43.056 64.52 42.9088 64.6672C42.7984 64.7776 42.6512 64.7408 42.5408 64.6304C42.4304 64.52 42.4304 64.3728 42.5408 64.2624C42.7984 64.0416 43.1296 63.9312 43.4608 63.9312C43.7552 63.9312 44.0128 64.0784 44.16 64.2992C44.2704 64.4096 44.2336 64.5568 44.16 64.6672C44.1232 64.6672 44.0864 64.704 44.0128 64.704Z" fill="#231F20"/>
<path d="M45.5583 65.0352C45.5215 65.0352 45.4847 65.0352 45.4479 64.9984C45.3375 64.9248 45.2639 64.7776 45.3375 64.6672C45.4479 64.4464 45.6687 64.2624 45.9263 64.2256C46.2575 64.2256 46.5519 64.3728 46.7359 64.6304C46.8095 64.7408 46.7727 64.9248 46.6623 64.9984C46.5887 65.0352 46.4783 65.0352 46.3679 64.9984C46.2207 64.8512 46.0735 64.7776 45.9999 64.7776C45.9263 64.7776 45.8159 64.9248 45.8159 64.9248C45.7791 64.9616 45.6687 65.0352 45.5583 65.0352Z" fill="#231F20"/>
<path d="M42.3936 74.6401L40.7008 75.5233L41.6944 76.8849L38.7136 89.6177L41.5472 92.8193L44.0128 88.4769L42.5776 76.8849L43.7184 75.6705L42.3936 74.6401Z" fill="white"/>
<path d="M17.4433 127.375L13.9841 129.73C13.9841 129.73 19.8721 139.703 21.4913 137.127C21.9329 136.427 19.0993 130.539 19.0993 130.539L17.4433 127.375Z" fill="#231F20"/>
<path d="M20.792 137.825C18.5104 137.789 14.2784 130.686 13.8 129.877C13.7264 129.766 13.7632 129.619 13.8736 129.545L17.3328 127.19C17.4432 127.117 17.6272 127.153 17.7008 127.264C17.7008 127.264 17.7008 127.264 17.7008 127.301L19.3568 130.465C20.2032 132.269 22.1536 136.574 21.6752 137.31C21.528 137.605 21.16 137.825 20.792 137.825ZM14.352 129.803C15.7136 132.048 19.1728 137.273 20.792 137.31C21.0128 137.31 21.1968 137.2 21.3072 137.016C21.4912 136.574 20.2032 133.373 18.9152 130.686L17.3696 127.779L14.352 129.803Z" fill="#231F20"/>
<path d="M52.9184 135.654C52.9184 135.654 52.808 139.518 53.176 139.555C53.544 139.592 64.4368 138.12 63.6272 137.31C62.8176 136.501 57.592 135.286 57.592 135.286L52.9184 135.654Z" fill="#231F20"/>
<path d="M53.1393 139.813C52.9185 139.776 52.5873 139.702 52.6977 135.654C52.6977 135.507 52.8081 135.434 52.9185 135.397L57.5553 135.029C57.5921 135.029 57.5921 135.029 57.6289 135.029C58.1809 135.139 62.9281 136.243 63.8113 137.126C63.9585 137.237 63.9585 137.421 63.8849 137.568C63.2961 138.672 53.3601 139.813 53.1393 139.813ZM53.1761 135.875C53.1393 137.31 53.1761 138.893 53.2865 139.298C54.5009 139.261 62.3025 138.046 63.3329 137.384C62.5601 136.832 59.5057 135.986 57.5553 135.544L53.1761 135.875Z" fill="#231F20"/>
<path d="M46.8464 95.8733C46.6624 95.8733 46.552 95.7261 46.5888 95.5789C46.9936 92.4509 48.944 80.3437 48.9808 80.2333C48.9808 80.0861 49.128 79.9757 49.2752 80.0125C49.4224 80.0493 49.5328 80.1597 49.496 80.3069C49.496 80.3069 49.496 80.3069 49.496 80.3437C49.4592 80.4541 47.5088 92.5245 47.1408 95.6525C47.104 95.7629 46.9936 95.8733 46.8464 95.8733Z" fill="#231F20"/>
<path d="M68.08 91.9359C76.4738 91.9359 83.2784 85.1313 83.2784 76.7375C83.2784 68.3436 76.4738 61.5391 68.08 61.5391C59.6861 61.5391 52.8816 68.3436 52.8816 76.7375C52.8816 85.1313 59.6861 91.9359 68.08 91.9359Z" fill="#231F20"/>
<path d="M68.08 92.1566C59.5424 92.1566 52.624 85.2382 52.624 76.7006C52.624 68.163 59.5424 61.2446 68.08 61.2446C76.2864 61.2446 83.0576 67.6478 83.4992 75.8174C83.9776 84.3182 77.5008 91.6414 69 92.1198C68.6688 92.1566 68.3744 92.1566 68.08 92.1566ZM68.1168 61.7966C67.8224 61.7966 67.528 61.7966 67.2336 61.8334C58.9904 62.3118 52.7344 69.3774 53.2128 77.6206C53.6912 85.8638 60.7568 92.1198 69 91.6414C77.2432 91.163 83.4992 84.0974 83.0208 75.8542C82.5424 67.979 75.992 61.7966 68.1168 61.7966Z" fill="#231F20"/>
<path d="M65.7248 92.0833C74.1186 92.0833 80.9232 85.2788 80.9232 76.8849C80.9232 68.4911 74.1186 61.6865 65.7248 61.6865C57.3309 61.6865 50.5264 68.4911 50.5264 76.8849C50.5264 85.2788 57.3309 92.0833 65.7248 92.0833Z" fill="#426DC2"/>
<path d="M65.7248 92.3039C57.1872 92.3039 50.3056 85.3487 50.3424 76.8479C50.3424 68.3103 57.2976 61.4287 65.7984 61.4655C74.336 61.4655 81.2176 68.4207 81.1808 76.9215C81.1808 85.0911 74.7776 91.8255 66.6448 92.3039C66.3136 92.3039 66.0192 92.3039 65.7248 92.3039ZM65.7616 61.9439C65.4672 61.9439 65.1728 61.9439 64.8784 61.9807C56.6352 62.4591 50.3792 69.5247 50.8576 77.7679C51.336 86.0111 58.4016 92.2671 66.6448 91.7887C74.888 91.3103 81.144 84.2447 80.6656 76.0015C80.1872 68.0895 73.6368 61.9439 65.7616 61.9439Z" fill="#231F20"/>
<path d="M75.2929 71.7325C75.1825 71.8797 75.0721 72.0269 74.9617 72.1741L63.1857 83.9501C62.7809 84.3549 62.4865 84.3549 62.0817 83.9501L55.4577 77.1053C55.1633 76.8845 55.1265 76.4797 55.3473 76.1853C55.3841 76.1117 55.4577 76.0749 55.5313 76.0381L57.1873 74.5293C57.4081 74.2717 57.8129 74.2349 58.0705 74.4557C58.1073 74.4925 58.1441 74.5293 58.1809 74.5661L62.1185 78.5773C62.5233 78.9821 62.8177 78.9821 63.2225 78.5773L72.3489 69.4877C72.7537 69.0829 73.0481 69.0829 73.4529 69.4877C73.9681 70.0029 74.4833 70.5181 74.9985 71.0333C75.1089 71.1805 75.2193 71.3277 75.3297 71.4749L75.2929 71.7325Z" fill="white"/>
<path d="M51.0784 85.4593C51.0784 85.4593 54.1696 85.0545 54.648 84.7601C55.1264 84.4657 56.4144 82.3313 57.1136 82.1841C57.8128 82.0369 57.6656 83.5825 57.1136 84.2081C56.5616 84.8337 59.7264 82.5153 60.2416 83.0305C60.9408 83.9505 60.9408 85.2385 60.2416 86.1585C59.3584 87.2257 54.1328 89.2865 51.4096 89.4337" fill="white"/>
<path d="M51.3729 89.6542C51.2257 89.6542 51.1152 89.5438 51.1152 89.3966C51.1152 89.2494 51.2257 89.139 51.3729 89.139C53.9857 88.9918 59.1745 86.9678 60.0209 85.9742C60.6465 85.1646 60.6464 84.0238 60.0576 83.1774C59.7632 83.067 58.3649 83.8766 57.8865 84.1342C57.1505 84.539 57.0033 84.6494 56.8561 84.4286C56.7457 84.3182 56.7824 84.171 56.9296 83.987C57.2976 83.5454 57.4081 82.6622 57.2609 82.4414C57.2609 82.4046 57.224 82.4046 57.1872 82.4046C56.856 82.4782 56.1936 83.3614 55.7152 83.9134C55.4576 84.2814 55.1632 84.6126 54.7952 84.9438C54.28 85.275 51.6304 85.643 51.1152 85.6798C50.968 85.6798 50.8577 85.6062 50.8209 85.459C50.7841 85.3118 50.8944 85.2014 51.0416 85.1646C52.2928 85.0174 54.2065 84.6862 54.5009 84.5022C54.7953 84.2078 55.0528 83.9134 55.2736 83.5822C56.0096 82.6622 56.5617 81.9998 57.0401 81.8894C57.2977 81.8158 57.5552 81.9262 57.6656 82.147C57.8496 82.6254 57.8496 83.1774 57.6656 83.6558C58.9536 82.9198 59.9841 82.3678 60.3889 82.8094C61.0145 83.435 61.3457 85.1278 60.3889 86.2686C59.4321 87.4094 54.2065 89.507 51.3729 89.6542Z" fill="#231F20"/>
<path d="M34.2239 71.6592C34.2239 71.6592 35.5487 84.8704 39.3759 84.944C44.0495 85.0176 52.0351 84.8336 52.0351 84.8336L53.5807 89.8016C53.5807 89.8016 41.2159 92.7824 35.9903 90.5008C30.7647 88.2192 30.3967 79.3504 30.3967 79.3504L34.2239 71.6592Z" fill="#426DC2"/>
<path d="M43.1296 85.3486C41.032 85.3486 39.2288 85.275 38.7504 85.0542C37.3888 84.4654 34.8864 75.8174 34.3712 74.051C34.3344 73.9038 34.408 73.7566 34.5552 73.7198C34.7024 73.683 34.8496 73.7566 34.8864 73.9038C35.9904 77.8046 38.088 84.171 38.9712 84.539C39.8544 84.907 47.288 84.7598 51.9984 84.539C52.1456 84.539 52.256 84.6494 52.2928 84.7966C52.2928 84.9438 52.1824 85.0542 52.0352 85.091C51.2624 85.1278 46.736 85.3486 43.1296 85.3486Z" fill="#231F20"/>
<path d="M41.5472 91.5313C39.4496 91.5313 37.3888 91.3473 35.9168 90.7585C30.9856 88.8817 30.176 81.9633 30.176 81.6689C30.176 81.5217 30.2496 81.3745 30.3968 81.3745C30.544 81.3745 30.6912 81.4481 30.6912 81.5953C30.6912 81.6689 31.5008 88.5137 36.1008 90.2433C40.8112 92.0097 51.4464 89.9489 51.5568 89.9489C51.704 89.9121 51.8512 90.0225 51.8512 90.1697C51.888 90.3169 51.7776 90.4641 51.6304 90.4641C48.3184 91.1265 44.9328 91.4577 41.5472 91.5313Z" fill="#231F20"/>
</svg>
