<svg width="17" height="16" viewBox="0 0 17 16" fill="none" xmlns="http://www.w3.org/2000/svg">
<path d="M9.6002 13.6748C9.6002 13.3748 9.3752 13.1498 9.0752 13.1498C9.0252 13.1498 8.9502 13.1498 8.9002 13.1748C8.8252 13.0498 8.7002 12.9498 8.5502 12.9498C8.4502 12.9498 8.3752 12.9748 8.3002 13.0248V12.9498C8.3002 12.7248 8.1252 12.5498 7.9002 12.5498C7.7002 12.5498 7.5502 12.6998 7.5252 12.8748C7.4752 12.8248 7.4252 12.8248 7.3502 12.8248C7.2002 12.8248 7.0752 12.9498 7.0752 13.0998V14.6748H9.1752C9.4002 14.6748 9.5752 14.4998 9.5752 14.2748C9.5752 14.1748 9.5252 14.0748 9.4752 13.9998C9.5502 13.8998 9.6002 13.7748 9.6002 13.6748Z" fill="#83BF4F"/>
<path d="M9.6001 14.2502C9.6001 14.1502 9.5501 14.0502 9.5001 13.9752C9.5751 13.8752 9.6001 13.7752 9.6001 13.6502C9.6001 13.3502 9.3751 13.1252 9.0751 13.1252C9.0251 13.1252 8.9501 13.1252 8.9001 13.1502C8.8501 13.0752 8.8001 13.0002 8.7001 12.9502C8.5501 13.0002 8.4751 13.1502 8.4751 13.3002C8.4751 13.3502 8.4751 13.3752 8.5001 13.4002C8.4751 13.3752 8.4251 13.3752 8.3751 13.3752C8.2251 13.3752 8.1001 13.5002 8.1001 13.6502C8.1001 13.7502 8.1501 13.8252 8.2501 13.8752C8.2001 13.9502 8.1501 14.0502 8.1501 14.1502C8.1501 14.4002 8.3501 14.6002 8.6001 14.6002H9.2001C9.4251 14.6502 9.6001 14.4752 9.6001 14.2502ZM8.0501 14.3252C8.0501 14.4752 7.9251 14.2752 7.7751 14.2752C7.6251 14.2752 7.5001 14.4752 7.5001 14.3252C7.5001 14.1752 7.6251 14.0502 7.7751 14.0502C7.9251 14.0502 8.0501 14.1752 8.0501 14.3252ZM7.4751 13.8752C7.4751 13.9502 7.4251 13.8752 7.3501 13.8752C7.2751 13.8752 7.2251 13.9502 7.2251 13.8752C7.2251 13.8002 7.2751 13.7502 7.3501 13.7502C7.4001 13.7252 7.4751 13.8002 7.4751 13.8752Z" fill="#699635"/>
<path d="M7.7 13.4749C7.7 13.5499 7.65 13.4499 7.575 13.4499C7.5 13.4499 7.45 13.5499 7.45 13.4749C7.45 13.3999 7.5 13.3499 7.575 13.3499C7.65 13.3499 7.7 13.3999 7.7 13.4749ZM8.8 14.1249C8.8 14.2249 8.725 14.0749 8.625 14.0749C8.525 14.0749 8.45 14.2249 8.45 14.1249C8.45 14.0249 8.525 13.9499 8.625 13.9499C8.725 13.9499 8.8 14.0249 8.8 14.1249ZM9.3 13.6249C9.3 13.7749 9.175 13.5499 9.025 13.5499C8.875 13.5499 8.75 13.7749 8.75 13.6249C8.75 13.4749 8.875 13.3499 9.025 13.3499C9.175 13.3749 9.3 13.4999 9.3 13.6249ZM9.3 14.2499C9.3 14.3249 9.25 14.2499 9.175 14.2499C9.1 14.2499 9.05 14.3249 9.05 14.2499C9.05 14.1749 9.1 14.1249 9.175 14.1249C9.25 14.1249 9.3 14.1749 9.3 14.2499ZM8.125 13.1999C8.125 13.2999 8.05 13.1499 7.95 13.1499C7.85 13.1499 7.775 13.2999 7.775 13.1999C7.775 13.0999 7.85 13.0249 7.95 13.0249C8.05 13.0249 8.125 13.0999 8.125 13.1999ZM1 14.5749H16V15.4999H1V14.5749Z" fill="#83BF4F"/>
<path d="M13.8252 3H14.4252V4.15H13.8252V3Z" fill="#D0D0D0"/>
<path d="M14.4502 3H14.8502V4.15H14.4502V3Z" fill="#94989B"/>
<path d="M13.625 2.6001H14.65V3.0001H13.625V2.6001Z" fill="#D0D0D0"/>
<path d="M14.6499 2.6001H15.0499V3.0001H14.6499V2.6001Z" fill="#94989B"/>
<path d="M9.2002 9.9501H15.7502V14.5751H9.2002V9.9501ZM9.9002 4.7251H15.0502V9.0251H9.9002V4.7251Z" fill="#F9F3D9"/>
<path d="M16.0002 9.9499H8.9502L9.9002 9.0249H15.0502L16.0002 9.9499Z" fill="#ED4C5C"/>
<path d="M10.375 11.5752H12.025V14.5752H10.375V11.5752Z" fill="#89664C"/>
<path d="M10.125 11.1001H12.225V11.5751H10.125V11.1001Z" fill="#DBB471"/>
<path d="M11.65 13.2248C11.7328 13.2248 11.8 13.1576 11.8 13.0748C11.8 12.992 11.7328 12.9248 11.65 12.9248C11.5672 12.9248 11.5 12.992 11.5 13.0748C11.5 13.1576 11.5672 13.2248 11.65 13.2248Z" fill="#F9F3D9"/>
<path d="M12.4752 2.375L8.9502 4.725H16.0002L12.4752 2.375Z" fill="#ED4C5C"/>
<path d="M13.125 11.3252H15.05V13.2502H13.125V11.3252Z" fill="#D6EEF0"/>
<path d="M12.875 11.1001V13.5001H15.275V11.1001H12.875ZM15.05 11.3251V12.1751H14.2V11.3251H15.05ZM13.975 11.3251V12.1751H13.125V11.3251H13.975ZM13.125 13.2501V12.4001H13.975V13.2501H13.125ZM14.2 13.2501V12.4001H15.05V13.2501H14.2Z" fill="#89664C"/>
<path d="M11.5249 5.875H13.4499V7.8H11.5249V5.875Z" fill="#D6EEF0"/>
<path d="M11.2749 5.6499V8.0499H13.6749V5.6499H11.2749ZM13.4499 5.8749V6.7249H12.5999V5.8749H13.4499ZM12.3499 5.8749V6.7249H11.4999V5.8749H12.3499ZM11.5249 7.7999V6.9499H12.3749V7.7999H11.5249ZM12.5999 7.7999V6.9499H13.4499V7.7999H12.5999Z" fill="#89664C"/>
<path d="M5.875 3H6.475V4.15H5.875V3Z" fill="#D0D0D0"/>
<path d="M6.5 3H6.9V4.15H6.5V3Z" fill="#94989B"/>
<path d="M5.6748 2.6001H6.6998V3.0001H5.6748V2.6001Z" fill="#D0D0D0"/>
<path d="M6.7002 2.6001H7.1002V3.0001H6.7002V2.6001Z" fill="#94989B"/>
<path d="M1.25 9.9501H7.8V14.5751H1.25V9.9501ZM1.95 4.7251H7.1V9.0251H1.95V4.7251Z" fill="#F9F3D9"/>
<path d="M2.4248 11.5752H4.0748V14.5752H2.4248V11.5752Z" fill="#89664C"/>
<path d="M2.1748 11.1001H4.2748V11.5751H2.1748V11.1001Z" fill="#DBB471"/>
<path d="M3.6998 13.2248C3.78265 13.2248 3.8498 13.1576 3.8498 13.0748C3.8498 12.992 3.78265 12.9248 3.6998 12.9248C3.61696 12.9248 3.5498 12.992 3.5498 13.0748C3.5498 13.1576 3.61696 13.2248 3.6998 13.2248Z" fill="#F9F3D9"/>
<path d="M4.525 2.375L1 4.725H8.05L4.525 2.375Z" fill="#ED4C5C"/>
<path d="M3.5498 5.875H5.4748V7.8H3.5498V5.875Z" fill="#D6EEF0"/>
<path d="M3.3252 5.6499V8.0499H5.7252V5.6499H3.3252ZM5.4752 5.8749V6.7249H4.6252V5.8749H5.4752ZM4.4002 5.8749V6.7249H3.5502V5.8749H4.4002ZM3.5502 7.7999V6.9499H4.4002V7.7999H3.5502ZM4.6502 7.7999V6.9499H5.5002V7.7999H4.6502Z" fill="#89664C"/>
<path d="M5.1748 11.3252H7.0998V13.2502H5.1748V11.3252Z" fill="#D6EEF0"/>
<path d="M4.9248 11.1001V13.5001H7.3248V11.1001H4.9248ZM7.0998 11.3251V12.1751H6.2498V11.3251H7.0998ZM5.9998 11.3251V12.1751H5.1498V11.3251H5.9998ZM5.1748 13.2501V12.4001H5.9998V13.2501H5.1748ZM6.2498 13.2501V12.4001H7.0998V13.2501H6.2498Z" fill="#89664C"/>
<path d="M8.05 9.9499H1L1.95 9.0249H7.1L8.05 9.9499Z" fill="#ED4C5C"/>
</svg>
