<svg width="16" height="16" viewBox="0 0 16 16" fill="none" xmlns="http://www.w3.org/2000/svg">
<path d="M1.338 1.9608C1.495 1.3618 2.041 0.999805 2.615 0.999805C2.969 0.999805 3.291 1.1328 3.536 1.3498C3.80612 1.12322 4.14743 0.999023 4.5 0.999023C4.85257 0.999023 5.19388 1.12322 5.464 1.3498C5.71748 1.12379 6.04539 0.999171 6.385 0.999805C6.959 0.999805 7.505 1.3618 7.662 1.9608C7.812 2.5328 8 3.4548 8 4.4998C7.99998 5.08336 7.85404 5.65765 7.57547 6.17042C7.2969 6.6832 6.89455 7.11818 6.405 7.4358C6.134 7.6128 6 7.8408 6 8.0358V8.4318C6 8.45447 6.00133 8.47647 6.004 8.4978C6.038 8.7458 6.161 9.6668 6.276 10.6218C6.389 11.5588 6.5 12.5808 6.5 12.9998C6.5 13.5302 6.28929 14.0389 5.91421 14.414C5.53914 14.7891 5.03043 14.9998 4.5 14.9998C3.96957 14.9998 3.46086 14.7891 3.08579 14.414C2.71071 14.0389 2.5 13.5302 2.5 12.9998C2.5 12.5798 2.611 11.5598 2.724 10.6218C2.839 9.6668 2.962 8.7458 2.996 8.4978L3 8.4318V8.0358C3 7.8408 2.866 7.6128 2.595 7.4358C2.10545 7.11818 1.7031 6.6832 1.42453 6.17042C1.14596 5.65765 1.00002 5.08336 1 4.4998C1 3.4548 1.188 2.5328 1.338 1.9608ZM6 4.9998C6 5.13241 5.94732 5.25959 5.85355 5.35336C5.75979 5.44713 5.63261 5.4998 5.5 5.4998C5.36739 5.4998 5.24021 5.44713 5.14645 5.35336C5.05268 5.25959 5 5.13241 5 4.9998V2.4998C5 2.3672 4.94732 2.24002 4.85355 2.14625C4.75979 2.05248 4.63261 1.9998 4.5 1.9998C4.36739 1.9998 4.24021 2.05248 4.14645 2.14625C4.05268 2.24002 4 2.3672 4 2.4998V4.9998C4 5.13241 3.94732 5.25959 3.85355 5.35336C3.75979 5.44713 3.63261 5.4998 3.5 5.4998C3.36739 5.4998 3.24021 5.44713 3.14645 5.35336C3.05268 5.25959 3 5.13241 3 4.9998V2.3848C3 2.2827 2.95944 2.18477 2.88724 2.11257C2.81503 2.04037 2.71711 1.9998 2.615 1.9998C2.449 1.9998 2.335 2.0988 2.305 2.2148C2.10793 2.96067 2.00546 3.72836 2 4.4998C1.99995 4.91684 2.10423 5.32726 2.30334 5.6937C2.50245 6.06013 2.79007 6.37094 3.14 6.5978C3.579 6.8828 4 7.3838 4 8.0358V8.4318C4 8.49847 3.99567 8.56514 3.987 8.6318C3.953 8.8778 3.831 9.7928 3.717 10.7418C3.601 11.7068 3.5 12.6558 3.5 12.9998C3.5 13.265 3.60536 13.5194 3.79289 13.7069C3.98043 13.8944 4.23478 13.9998 4.5 13.9998C4.76522 13.9998 5.01957 13.8944 5.20711 13.7069C5.39464 13.5194 5.5 13.265 5.5 12.9998C5.5 12.6558 5.4 11.7068 5.283 10.7408C5.169 9.7928 5.047 8.8778 5.013 8.6308C5.00539 8.56506 5.00105 8.49898 5 8.4328V8.0368C5 7.3848 5.421 6.8838 5.86 6.5988C6.21007 6.37184 6.49778 6.06088 6.6969 5.69426C6.89601 5.32764 7.00021 4.91701 7 4.4998C7 3.5678 6.832 2.7358 6.695 2.2148C6.665 2.0998 6.55 1.9998 6.385 1.9998C6.28289 1.9998 6.18497 2.04037 6.11276 2.11257C6.04056 2.18477 6 2.2827 6 2.3848V4.9998ZM9 5.4998C9 4.30633 9.47411 3.16174 10.318 2.31782C11.1619 1.47391 12.3065 0.999805 13.5 0.999805C13.6326 0.999805 13.7598 1.05248 13.8536 1.14625C13.9473 1.24002 14 1.3672 14 1.4998V7.4728L14.019 7.6498C14.0986 8.39614 14.1749 9.14281 14.248 9.8898C14.371 11.1458 14.5 12.5538 14.5 12.9998C14.5 13.5302 14.2893 14.0389 13.9142 14.414C13.5391 14.7891 13.0304 14.9998 12.5 14.9998C11.9696 14.9998 11.4609 14.7891 11.0858 14.414C10.7107 14.0389 10.5 13.5302 10.5 12.9998C10.5 12.5538 10.629 11.1458 10.752 9.8898C10.815 9.2528 10.878 8.6428 10.925 8.1908L10.945 7.9998H10C9.73478 7.9998 9.48043 7.89445 9.29289 7.70691C9.10536 7.51937 9 7.26502 9 6.9998V5.4998ZM11.997 7.5528L11.976 7.7548C11.8978 8.49892 11.8218 9.24325 11.748 9.9878C11.621 11.2748 11.5 12.6178 11.5 12.9998C11.5 13.265 11.6054 13.5194 11.7929 13.7069C11.9804 13.8944 12.2348 13.9998 12.5 13.9998C12.7652 13.9998 13.0196 13.8944 13.2071 13.7069C13.3946 13.5194 13.5 13.265 13.5 12.9998C13.5 12.6168 13.379 11.2748 13.252 9.9878C13.1787 9.2432 13.1027 8.49886 13.024 7.7548L13.003 7.5538L13 7.4998V2.0348C12.1669 2.15506 11.4049 2.57156 10.854 3.20796C10.303 3.84436 9.99978 4.65802 10 5.4998V6.9998H11.5C11.5701 6.99983 11.6394 7.0146 11.7035 7.04316C11.7675 7.07172 11.8248 7.11343 11.8717 7.16558C11.9186 7.21773 11.9539 7.27916 11.9755 7.34587C11.9971 7.41258 12.0044 7.48308 11.997 7.5528Z" fill="black"/>
</svg>
