<svg width="16" height="16" viewBox="0 0 16 16" fill="none" xmlns="http://www.w3.org/2000/svg">
<path d="M5.18152 1.62604L5.89952 1.3967C6.57152 1.18204 7.29019 1.52937 7.57819 2.20804L8.15152 3.56004C8.40152 4.1487 8.26286 4.84137 7.80886 5.27204L6.54686 6.4707C6.62463 7.18804 6.86552 7.89404 7.26952 8.5887C7.6537 9.26061 8.16848 9.84883 8.78352 10.3187L10.3009 9.81204C10.8755 9.6207 11.5015 9.84137 11.8542 10.3594L12.6755 11.566C13.0862 12.1687 13.0122 12.9994 12.5035 13.51L11.9582 14.0574C11.4155 14.602 10.6409 14.8 9.92352 14.576C8.23108 14.048 6.67486 12.4807 5.25486 9.87404C3.83308 7.26293 3.3313 5.04781 3.74952 3.2287C3.92552 2.46337 4.47086 1.85337 5.18286 1.62604" fill="#426DC2"/>
</svg>
