<svg width="16" height="16" viewBox="0 0 16 16" fill="none" xmlns="http://www.w3.org/2000/svg">
<path d="M7.75 2.75V3.77038C7.58478 3.79644 7.41828 3.84687 7.25 3.91506V3.25H6.75V4.16125C6.69696 4.19125 6.64368 4.22229 6.59016 4.25437C6.47772 4.32187 6.36422 4.39437 6.25 4.47016V3.75H5.75V4.81844C5.58362 4.93875 5.41675 5.063 5.25 5.18787V4.75H4.75V5.56141C4.58119 5.68666 4.41406 5.80828 4.25 5.92366V5.25H3.75V6.25666C3.7175 6.27688 3.68469 6.29766 3.65266 6.31691C3.51366 6.40034 3.37872 6.47325 3.25 6.53447V6.25H2.75V6.71791C2.65969 6.73884 2.57578 6.75 2.5 6.75H2.25V5.75H0.75V15.25H2.25V7.25H2.5C2.58306 7.25 2.66638 7.24281 2.75 7.22963V15.25H3.25V7.08491C3.41475 7.01809 3.58125 6.93428 3.75 6.83875V15.25H4.25V6.52984C4.41544 6.42009 4.58241 6.30284 4.75 6.18159V15.25H5.25V10.75H5.75V15.25H6.25V5.07634C6.42069 4.95641 6.58781 4.84425 6.75 4.74334V9.25H7.25V4.46556C7.43103 4.3795 7.59963 4.31697 7.75 4.28212V9.25H8.25V4.28209C8.40037 4.31697 8.56897 4.3795 8.75 4.46553V9.25H9.25V4.74334C9.41219 4.84428 9.57931 4.95641 9.75 5.07634V15.25H10.25V10.75H10.75V15.25H11.25V6.18156C11.4176 6.30281 11.5846 6.42009 11.75 6.52984V15.25H12.25V6.83875C12.4187 6.93425 12.5852 7.01813 12.75 7.08491V15.25H13.25V7.22963C13.3336 7.24281 13.4169 7.25 13.5 7.25H13.75V15.25H15.25V5.75H13.75V6.75H13.5C13.4242 6.75 13.3403 6.73884 13.25 6.71791V6.25H12.75V6.53444C12.6213 6.47319 12.4863 6.40031 12.3473 6.31694C12.3153 6.29766 12.2825 6.27688 12.25 6.25663V5.25H11.75V5.92366C11.5859 5.80834 11.4188 5.68666 11.25 5.56141V4.75H10.75V5.18787C10.5833 5.063 10.4164 4.93881 10.25 4.81841V3.75H9.75V4.47016C9.63581 4.39441 9.52228 4.32184 9.40984 4.25441C9.35696 4.22269 9.30367 4.19164 9.25 4.16128V3.25H8.75V3.91509C8.58172 3.84687 8.41522 3.79644 8.25 3.77041V2.75H7.75ZM1.5 3.75C1.08281 3.75 0.75 4.08281 0.75 4.5C0.75 4.91719 1.08281 5.25 1.5 5.25C1.91719 5.25 2.25 4.91719 2.25 4.5C2.25 4.08281 1.91719 3.75 1.5 3.75ZM14.5 3.75C14.0828 3.75 13.75 4.08281 13.75 4.5C13.75 4.91719 14.0828 5.25 14.5 5.25C14.9172 5.25 15.25 4.91719 15.25 4.5C15.25 4.08281 14.9172 3.75 14.5 3.75ZM5.75 5.43859V10.25H5.25V5.81213C5.3 5.77469 5.35009 5.73744 5.4 5.7C5.51719 5.61219 5.63387 5.52475 5.75 5.43859ZM10.25 5.43859C10.3661 5.52475 10.4828 5.61219 10.6 5.7C10.6499 5.7375 10.7 5.77469 10.75 5.81213V10.25H10.25V5.43859ZM6.75 9.75V10.75H9.25V9.75H6.75ZM6.75 11.25V15.25H7.25V11.25H6.75ZM7.75 11.25V15.25H8.25V11.25H7.75ZM8.75 11.25V15.25H9.25V11.25H8.75Z" fill="black"/>
</svg>
