<svg width="16" height="16" viewBox="0 0 16 16" fill="none" xmlns="http://www.w3.org/2000/svg">
<path fill-rule="evenodd" clip-rule="evenodd" d="M7.35415 8.53395L3.77681 1.80528C3.75626 1.76663 3.74352 1.72431 3.73933 1.68073C3.73513 1.63716 3.73956 1.59318 3.75236 1.55132C3.77821 1.46677 3.83658 1.39596 3.91465 1.35445C3.99271 1.31294 4.08406 1.30415 4.16861 1.33C4.21047 1.3428 4.24941 1.36371 4.28318 1.39156C4.31696 1.41941 4.34493 1.45363 4.36548 1.49228L7.94315 8.22095L8.45048 7.95095C8.60511 7.86874 8.77441 7.8178 8.94873 7.80104C9.12305 7.78427 9.29896 7.80201 9.46642 7.85324C9.63388 7.90447 9.78961 7.98819 9.92471 8.09961C10.0598 8.21103 10.1716 8.34797 10.2538 8.50262L10.4698 8.90862L12.7595 12.2603L8.00981 14.7856L6.51148 11.013L6.29581 10.6069C6.21359 10.4523 6.16264 10.2831 6.14585 10.1088C6.12906 9.93445 6.14677 9.75855 6.19797 9.59109C6.24916 9.42363 6.33284 9.2679 6.44423 9.13278C6.55562 8.99767 6.69253 8.88582 6.84715 8.80362L7.35415 8.53395ZM7.15981 9.39228L8.76315 8.53995C8.84045 8.49884 8.92509 8.47336 9.01225 8.46497C9.0994 8.45657 9.18735 8.46543 9.27108 8.49103C9.35481 8.51662 9.43267 8.55847 9.50023 8.61416C9.56779 8.66985 9.62371 8.73831 9.66481 8.81562L9.88081 9.22128L7.09981 10.6999L6.88415 10.294C6.84304 10.2166 6.81756 10.132 6.80916 10.0449C6.80077 9.9577 6.80962 9.86975 6.83522 9.78602C6.86082 9.70229 6.90266 9.62442 6.95835 9.55687C7.01405 9.48931 7.0825 9.43338 7.15981 9.39228ZM7.43648 11.5363L8.35415 13.8473L8.96548 13.5223L8.24381 12.1173L8.83715 11.8126L9.55448 13.2093L11.7885 12.0213L10.3858 9.96795L7.43648 11.5363Z" fill="black"/>
<path d="M5.4535 11.7437C5.48714 11.7157 5.52596 11.6946 5.56777 11.6816C5.60957 11.6686 5.65352 11.6639 5.69712 11.6679C5.74071 11.6719 5.7831 11.6844 5.82186 11.7047C5.86061 11.7251 5.89498 11.7529 5.923 11.7865C5.95101 11.8202 5.97213 11.859 5.98514 11.9008C5.99814 11.9426 6.00279 11.9866 5.99882 12.0302C5.99484 12.0738 5.98231 12.1161 5.96195 12.1549C5.9416 12.1937 5.9138 12.228 5.88016 12.256L5.87983 12.2564L5.87916 12.257L5.87816 12.2577L5.87483 12.2604L5.86483 12.2687L5.8305 12.295C5.80138 12.3173 5.76061 12.3461 5.70816 12.3817C5.60316 12.4517 5.4515 12.543 5.26016 12.6344C4.76277 12.873 4.2185 12.9979 3.66683 13C3.57842 13 3.49364 12.9649 3.43113 12.9024C3.36862 12.8399 3.3335 12.7551 3.3335 12.6667C3.3335 12.5783 3.36862 12.4935 3.43113 12.431C3.49364 12.3685 3.57842 12.3334 3.66683 12.3334C4.11932 12.3312 4.56566 12.2284 4.9735 12.0324C5.09969 11.9724 5.22154 11.9037 5.33816 11.8267C5.37652 11.8013 5.41398 11.7747 5.4505 11.7467L5.45383 11.7434L5.4535 11.7437ZM6.5185 13.944C6.59205 13.895 6.6431 13.8187 6.66041 13.732C6.67773 13.6453 6.65989 13.5553 6.61083 13.4817C6.56176 13.4081 6.48549 13.3571 6.39879 13.3398C6.31208 13.3225 6.22205 13.3403 6.1485 13.3894L6.14783 13.39L6.14116 13.394L6.1125 13.4124C6.08605 13.429 6.04727 13.452 5.99616 13.4814C5.85877 13.5598 5.71748 13.6313 5.57283 13.6954C5.21683 13.8537 4.7665 14 4.3335 14C4.24509 14 4.16031 14.0352 4.09779 14.0977C4.03528 14.1602 4.00016 14.245 4.00016 14.3334C4.00016 14.4218 4.03528 14.5066 4.09779 14.5691C4.16031 14.6316 4.24509 14.6667 4.3335 14.6667C4.90083 14.6667 5.45016 14.4797 5.84383 14.3047C6.05777 14.2097 6.26522 14.1007 6.46483 13.9784L6.50283 13.9544L6.5135 13.9474L6.51683 13.9454L6.5185 13.944Z" fill="black"/>
</svg>
