<svg width="20" height="21" viewBox="0 0 20 21" fill="none" xmlns="http://www.w3.org/2000/svg">
<path d="M10.0084 19.2688C9.48343 19.2688 8.96676 19.0938 8.55843 18.7438L7.24176 17.6188C7.10843 17.5021 6.7751 17.3855 6.6001 17.3855H5.14176C3.90843 17.3855 2.90843 16.3854 2.90843 15.1521V13.7271C2.90843 13.5521 2.79176 13.2188 2.68343 13.0938L1.5501 11.7604C0.866764 10.9521 0.866764 9.68545 1.5501 8.86878L2.68343 7.53545C2.79176 7.41045 2.90843 7.07712 2.90843 6.90212V5.48545C2.90843 4.25212 3.90843 3.25212 5.14176 3.25212H6.58343C6.75843 3.25212 7.08343 3.12712 7.2251 3.01045L8.54176 1.88545C9.35843 1.19378 10.6334 1.19378 11.4501 1.88545L12.7668 3.01045C12.9001 3.12712 13.2418 3.24378 13.4168 3.24378H14.8334C16.0668 3.24378 17.0668 4.24378 17.0668 5.47712V6.89378C17.0668 7.06878 17.1918 7.39378 17.3084 7.53545L18.4334 8.85212C19.1334 9.67712 19.1251 10.9521 18.4334 11.7604L17.3084 13.0771C17.1918 13.2188 17.0751 13.5438 17.0751 13.7188V15.1355C17.0751 16.3688 16.0751 17.3688 14.8418 17.3688H13.4251C13.2501 17.3688 12.9251 17.4938 12.7751 17.6105L11.4584 18.7355C11.0501 19.0938 10.5251 19.2688 10.0084 19.2688ZM5.14176 4.50212C4.6001 4.50212 4.15843 4.94378 4.15843 5.48545V6.90212C4.15843 7.37712 3.94176 7.97712 3.63343 8.34378L2.5001 9.67712C2.21676 10.0188 2.21676 10.6188 2.5001 10.9521L3.6251 12.2771C3.9251 12.6188 4.1501 13.2438 4.1501 13.7188V15.1438C4.1501 15.6855 4.59176 16.1271 5.13343 16.1271H6.58343C7.0501 16.1271 7.66676 16.3521 8.03343 16.6605L9.35843 17.7938C9.7001 18.0854 10.3001 18.0854 10.6418 17.7938L11.9584 16.6688C12.3334 16.3521 12.9418 16.1354 13.4084 16.1354H14.8251C15.3668 16.1354 15.8084 15.6938 15.8084 15.1521V13.7355C15.8084 13.2688 16.0334 12.6604 16.3418 12.2854L17.4751 10.9605C17.7668 10.6188 17.7668 10.0188 17.4751 9.67712L16.3501 8.36045C16.0334 7.98545 15.8168 7.37712 15.8168 6.91045V5.48545C15.8168 4.94378 15.3751 4.50212 14.8334 4.50212H13.4168C12.9418 4.50212 12.3251 4.27712 11.9584 3.96878L10.6334 2.83545C10.2918 2.54378 9.7001 2.54378 9.3501 2.83545L8.04176 3.96878C7.66676 4.27712 7.05843 4.50212 6.58343 4.50212H5.14176Z" fill="#426DC2"/>
<path d="M9.99984 14.3771C9.5415 14.3771 9.1665 14.0021 9.1665 13.5438C9.1665 13.0854 9.53317 12.7104 9.99984 12.7104C10.4582 12.7104 10.8332 13.0854 10.8332 13.5438C10.8332 14.0021 10.4665 14.3771 9.99984 14.3771Z" fill="#426DC2"/>
<path d="M10 11.7521C9.65833 11.7521 9.375 11.4688 9.375 11.1271V7.09375C9.375 6.75208 9.65833 6.46875 10 6.46875C10.3417 6.46875 10.625 6.75208 10.625 7.09375V11.1187C10.625 11.4688 10.35 11.7521 10 11.7521Z" fill="#426DC2"/>
</svg>
