<svg width="16" height="16" viewBox="0 0 16 16" fill="none" xmlns="http://www.w3.org/2000/svg">
<g clip-path="url(#clip0_147_1099)">
<path d="M0.40079 7.90403C0.400418 9.24834 0.751674 10.561 1.41958 11.7179L0.336914 15.6709L4.38231 14.6102C5.50122 15.2193 6.75486 15.5385 8.02882 15.5386H8.03217C12.2378 15.5386 15.6612 12.1164 15.663 7.91005C15.6638 5.87179 14.8707 3.95513 13.4299 2.51315C11.9893 1.07129 10.0733 0.276809 8.03186 0.275879C3.82578 0.275879 0.402588 3.69789 0.400852 7.90403" fill="url(#paint0_linear_147_1099)"/>
<path d="M0.128368 7.90177C0.127934 9.29445 0.491779 10.654 1.1835 11.8524L0.0620117 15.9471L4.25246 14.8484C5.40707 15.4779 6.70704 15.8098 8.02983 15.8103H8.03324C12.3897 15.8103 15.9361 12.265 15.938 7.90809C15.9387 5.79659 15.1171 3.81104 13.6248 2.3174C12.1323 0.823938 10.1478 0.000868217 8.03324 0C3.67603 0 0.130105 3.54481 0.128368 7.90177ZM2.62393 11.646L2.46747 11.3976C1.80973 10.3518 1.46257 9.14326 1.46307 7.90226C1.46443 4.28087 4.41166 1.33457 8.03572 1.33457C9.79076 1.33532 11.4401 2.01947 12.6807 3.26078C13.9212 4.5022 14.6038 6.15243 14.6033 7.9076C14.6017 11.529 11.6544 14.4757 8.03324 14.4757H8.03063C6.85153 14.475 5.69513 14.1584 4.68663 13.56L4.44663 13.4177L1.95993 14.0696L2.62393 11.646Z" fill="url(#paint1_linear_147_1099)"/>
<path d="M6.05753 4.59831C5.90956 4.26944 5.75384 4.2628 5.61313 4.25704C5.4979 4.25208 5.36618 4.25245 5.23459 4.25245C5.10286 4.25245 4.88885 4.302 4.70795 4.49952C4.52687 4.69722 4.0166 5.17499 4.0166 6.14671C4.0166 7.11843 4.72438 8.0576 4.82305 8.1895C4.92184 8.32116 6.18944 10.3791 8.197 11.1708C9.86547 11.8287 10.205 11.6978 10.5671 11.6649C10.9293 11.632 11.7357 11.1872 11.9003 10.726C12.0649 10.2649 12.0649 9.86956 12.0155 9.78696C11.9662 9.70466 11.8345 9.65524 11.6369 9.55651C11.4394 9.45778 10.4683 8.97989 10.2873 8.91397C10.1062 8.84811 9.97456 8.81524 9.84283 9.01301C9.71111 9.21046 9.33288 9.65524 9.21759 9.78696C9.10243 9.91899 8.98714 9.93542 8.78969 9.83663C8.59204 9.73753 7.95595 9.52922 7.20128 8.85642C6.61412 8.33288 6.21772 7.68637 6.10249 7.4886C5.98727 7.29115 6.09015 7.18411 6.18919 7.08569C6.27794 6.99719 6.38677 6.85505 6.48562 6.73977C6.58411 6.62442 6.61697 6.54212 6.68283 6.4104C6.74876 6.27856 6.71576 6.16321 6.66646 6.06442C6.61697 5.96563 6.23316 4.98882 6.05753 4.59831Z" fill="white"/>
</g>
<defs>
<linearGradient id="paint0_linear_147_1099" x1="766.641" y1="1539.78" x2="766.641" y2="0.275879" gradientUnits="userSpaceOnUse">
<stop stop-color="#1FAF38"/>
<stop offset="1" stop-color="#60D669"/>
</linearGradient>
<linearGradient id="paint1_linear_147_1099" x1="793.86" y1="1594.71" x2="793.86" y2="0" gradientUnits="userSpaceOnUse">
<stop stop-color="#F9F9F9"/>
<stop offset="1" stop-color="white"/>
</linearGradient>
<clipPath id="clip0_147_1099">
<rect width="15.876" height="16" fill="white" transform="translate(0.0620117)"/>
</clipPath>
</defs>
</svg>
