<svg width="16" height="16" viewBox="0 0 16 16" fill="none" xmlns="http://www.w3.org/2000/svg">
<path d="M8.00016 11.4669V13.7802M5.68683 13.7802H10.3135M12.1668 2.22021H3.8335C3.30306 2.22021 2.79436 2.43093 2.41928 2.806C2.04421 3.18107 1.8335 3.68978 1.8335 4.22021V9.46688C1.8335 9.99731 2.04421 10.506 2.41928 10.8811C2.79436 11.2562 3.30306 11.4669 3.8335 11.4669H12.1668C12.6973 11.4669 13.206 11.2562 13.581 10.8811C13.9561 10.506 14.1668 9.99731 14.1668 9.46688V4.22021C14.1668 3.68978 13.9561 3.18107 13.581 2.806C13.206 2.43093 12.6973 2.22021 12.1668 2.22021Z" stroke="black" stroke-linecap="round" stroke-linejoin="round"/>
</svg>
