<svg width="16" height="16" viewBox="0 0 16 16" fill="none" xmlns="http://www.w3.org/2000/svg">
<path fill-rule="evenodd" clip-rule="evenodd" d="M3.3335 13.3332C2.80306 13.3332 2.29436 13.1225 1.91928 12.7474C1.54421 12.3723 1.3335 11.8636 1.3335 11.3332V4.6665C1.3335 4.13607 1.54421 3.62736 1.91928 3.25229C2.29436 2.87722 2.80306 2.6665 3.3335 2.6665H12.6668C13.1973 2.6665 13.706 2.87722 14.081 3.25229C14.4561 3.62736 14.6668 4.13607 14.6668 4.6665V11.3332C14.6668 11.8636 14.4561 12.3723 14.081 12.7474C13.706 13.1225 13.1973 13.3332 12.6668 13.3332H3.3335ZM5.0835 5.47984C5.01559 5.42185 4.93672 5.37809 4.85157 5.35117C4.76643 5.32425 4.67674 5.31471 4.58784 5.32311C4.49893 5.33152 4.41262 5.3577 4.33403 5.4001C4.25544 5.4425 4.18617 5.50026 4.13033 5.56995C4.07449 5.63964 4.03322 5.71983 4.00897 5.80578C3.98472 5.89172 3.97798 5.98166 3.98916 6.07026C4.00034 6.15886 4.0292 6.24431 4.07404 6.32154C4.11887 6.39877 4.17876 6.4662 4.25016 6.51984L6.75016 8.5205C7.10489 8.80451 7.54575 8.95925 8.00016 8.95925C8.45457 8.95925 8.89544 8.80451 9.25016 8.5205L11.7502 6.5205C11.8185 6.46579 11.8755 6.39814 11.9177 6.32142C11.9599 6.2447 11.9866 6.16042 11.9963 6.07338C12.0059 5.98634 11.9984 5.89825 11.974 5.81414C11.9496 5.73003 11.9089 5.65155 11.8542 5.58317C11.7994 5.5148 11.7318 5.45787 11.6551 5.41564C11.5784 5.37341 11.4941 5.3467 11.407 5.33704C11.32 5.32738 11.2319 5.33497 11.1478 5.35935C11.0637 5.38374 10.9852 5.42445 10.9168 5.47917L8.41683 7.47917C8.29859 7.57384 8.15163 7.62542 8.00016 7.62542C7.84869 7.62542 7.70174 7.57384 7.5835 7.47917L5.0835 5.47984Z" fill="#426DC2"/>
</svg>
