<svg width="41" height="40" viewBox="0 0 41 40" fill="none" xmlns="http://www.w3.org/2000/svg">
<path d="M20.5001 35.0003C19.3334 35.0003 18.3473 34.5975 17.5417 33.792C16.7362 32.9864 16.3334 32.0003 16.3334 30.8337C16.3334 29.667 16.7362 28.6809 17.5417 27.8753C18.3473 27.0698 19.3334 26.667 20.5001 26.667C21.6667 26.667 22.6529 27.0698 23.4584 27.8753C24.264 28.6809 24.6667 29.667 24.6667 30.8337C24.6667 32.0003 24.264 32.9864 23.4584 33.792C22.6529 34.5975 21.6667 35.0003 20.5001 35.0003ZM20.5001 16.667C22.5834 16.667 24.5629 17.0003 26.4384 17.667C28.314 18.3337 30.0151 19.2503 31.5417 20.417C32.0973 20.8337 32.3823 21.3825 32.3967 22.0637C32.4112 22.7448 32.1679 23.3348 31.6667 23.8337C31.1945 24.3059 30.6112 24.5492 29.9167 24.5637C29.2223 24.5781 28.5973 24.3903 28.0417 24.0003C26.9862 23.2781 25.8195 22.7087 24.5417 22.292C23.264 21.8753 21.9167 21.667 20.5001 21.667C19.0834 21.667 17.7362 21.8753 16.4584 22.292C15.1806 22.7087 14.014 23.2781 12.9584 24.0003C12.4029 24.3892 11.7779 24.5698 11.0834 24.542C10.389 24.5142 9.80563 24.2642 9.33341 23.792C8.86119 23.292 8.62508 22.702 8.62508 22.022C8.62508 21.342 8.90285 20.7931 9.45841 20.3753C10.9862 19.2087 12.6879 18.2987 14.5634 17.6453C16.439 16.992 18.4179 16.6659 20.5001 16.667ZM20.5001 6.66699C23.9723 6.66699 27.2434 7.23644 30.3134 8.37533C33.3834 9.51421 36.1401 11.1253 38.5834 13.2087C39.139 13.6809 39.4306 14.2642 39.4584 14.9587C39.4862 15.6531 39.2501 16.2503 38.7501 16.7503C38.2779 17.2225 37.6945 17.4659 37.0001 17.4803C36.3056 17.4948 35.6806 17.2792 35.1251 16.8337C33.1251 15.1948 30.8823 13.9242 28.3967 13.022C25.9112 12.1198 23.279 11.6681 20.5001 11.667C17.7212 11.6659 15.0895 12.1175 12.6051 13.022C10.1206 13.9264 7.8773 15.197 5.87508 16.8337C5.31952 17.2781 4.69452 17.4937 4.00008 17.4803C3.30563 17.467 2.7223 17.2237 2.25008 16.7503C1.75008 16.2503 1.51397 15.6531 1.54174 14.9587C1.56952 14.2642 1.86119 13.6809 2.41674 13.2087C4.86119 11.1253 7.61841 9.51421 10.6884 8.37533C13.7584 7.23644 17.029 6.66699 20.5001 6.66699Z" fill="black"/>
</svg>
