<svg width="18" height="18" viewBox="0 0 18 18" fill="none" xmlns="http://www.w3.org/2000/svg">
<path d="M15.75 10.5V11.25C15.75 12.6825 14.9475 13.9275 13.7625 14.5575L14.25 16.5H12.75L12.375 15H5.625L5.25 16.5H3.75L4.2375 14.5575C3.63705 14.2387 3.13478 13.7624 2.78462 13.1796C2.43446 12.5969 2.24964 11.9298 2.25 11.25V10.5H1.5V9H15V3.75C15 3.55109 14.921 3.36032 14.7803 3.21967C14.6397 3.07902 14.4489 3 14.25 3C13.875 3 13.59 3.255 13.5 3.5925C13.9725 3.9975 14.25 4.5975 14.25 5.25H9.75C9.75 4.65326 9.98705 4.08097 10.409 3.65901C10.831 3.23705 11.4033 3 12 3H12.1275C12.435 2.13 13.2675 1.5 14.25 1.5C14.8467 1.5 15.419 1.73705 15.841 2.15901C16.2629 2.58097 16.5 3.15326 16.5 3.75V10.5H15.75ZM14.25 10.5H3.75V11.25C3.75 11.8467 3.98705 12.419 4.40901 12.841C4.83097 13.2629 5.40326 13.5 6 13.5H12C12.5967 13.5 13.169 13.2629 13.591 12.841C14.0129 12.419 14.25 11.8467 14.25 11.25V10.5Z" fill="#101315"/>
</svg>
