<svg width="16" height="21" viewBox="0 0 16 21" fill="none" xmlns="http://www.w3.org/2000/svg">
<path d="M8.01333 18.1868C6.45999 18.1868 4.90666 17.9401 3.43333 17.4468C2.87333 17.2534 2.44666 16.8601 2.25999 16.3468C2.06666 15.8334 2.13333 15.2668 2.43999 14.7601L3.20666 13.4868C3.36666 13.2201 3.51333 12.6868 3.51333 12.3734V10.4468C3.51333 7.96678 5.53333 5.94678 8.01333 5.94678C10.4933 5.94678 12.5133 7.96678 12.5133 10.4468V12.3734C12.5133 12.6801 12.66 13.2201 12.82 13.4934L13.58 14.7601C13.8667 15.2401 13.92 15.8201 13.7267 16.3468C13.5333 16.8734 13.1133 17.2734 12.5867 17.4468C11.12 17.9401 9.56666 18.1868 8.01333 18.1868ZM8.01333 6.94678C6.08666 6.94678 4.51333 8.51344 4.51333 10.4468V12.3734C4.51333 12.8601 4.31333 13.5801 4.06666 14.0001L3.29999 15.2734C3.15333 15.5201 3.11333 15.7801 3.19999 16.0001C3.27999 16.2268 3.47999 16.4001 3.75333 16.4934C6.53999 17.4268 9.49333 17.4268 12.28 16.4934C12.52 16.4134 12.7067 16.2334 12.7933 15.9934C12.88 15.7534 12.86 15.4934 12.7267 15.2734L11.96 14.0001C11.7067 13.5668 11.5133 12.8534 11.5133 12.3668V10.4468C11.5133 8.51344 9.94666 6.94678 8.01333 6.94678Z" fill="#292D32"/>
<path d="M9.25333 7.12662C9.20666 7.12662 9.15999 7.11995 9.11333 7.10662C8.91999 7.05329 8.73333 7.01329 8.55333 6.98662C7.98666 6.91329 7.43999 6.95329 6.92666 7.10662C6.73999 7.16662 6.53999 7.10662 6.41333 6.96662C6.28666 6.82662 6.24666 6.62662 6.31999 6.44662C6.59333 5.74662 7.25999 5.28662 8.01999 5.28662C8.77999 5.28662 9.44666 5.73995 9.71999 6.44662C9.78666 6.62662 9.75333 6.82662 9.62666 6.96662C9.52666 7.07329 9.38666 7.12662 9.25333 7.12662Z" fill="#292D32"/>
<path d="M8.01331 19.7065C7.35331 19.7065 6.71331 19.4399 6.24664 18.9732C5.77997 18.5065 5.51331 17.8665 5.51331 17.2065H6.51331C6.51331 17.5999 6.67331 17.9865 6.95331 18.2665C7.23331 18.5465 7.61997 18.7065 8.01331 18.7065C8.83997 18.7065 9.51331 18.0332 9.51331 17.2065H10.5133C10.5133 18.5865 9.39331 19.7065 8.01331 19.7065Z" fill="#292D32"/>
<circle cx="12" cy="4.5" r="4" fill="#00EB96"/>
</svg>
