<svg width="20" height="21" viewBox="0 0 20 21" fill="none" xmlns="http://www.w3.org/2000/svg">
<path d="M17.6453 8.35166C17.3508 8.04385 17.0461 7.72666 16.9312 7.44775C16.825 7.19229 16.8187 6.76885 16.8125 6.35869C16.8008 5.59619 16.7883 4.73213 16.1875 4.13135C15.5867 3.53057 14.7227 3.51807 13.9602 3.50635C13.55 3.5001 13.1266 3.49385 12.8711 3.3876C12.593 3.27275 12.275 2.96807 11.9672 2.67354C11.4281 2.15557 10.8156 1.56885 10 1.56885C9.18437 1.56885 8.57266 2.15557 8.03281 2.67354C7.725 2.96807 7.40781 3.27275 7.12891 3.3876C6.875 3.49385 6.45 3.5001 6.03984 3.50635C5.27734 3.51807 4.41328 3.53057 3.8125 4.13135C3.21172 4.73213 3.20312 5.59619 3.1875 6.35869C3.18125 6.76885 3.175 7.19229 3.06875 7.44775C2.95391 7.72588 2.64922 8.04385 2.35469 8.35166C1.83672 8.89072 1.25 9.50322 1.25 10.3188C1.25 11.1345 1.83672 11.7462 2.35469 12.286C2.64922 12.5938 2.95391 12.911 3.06875 13.1899C3.175 13.4454 3.18125 13.8688 3.1875 14.279C3.19922 15.0415 3.21172 15.9056 3.8125 16.5063C4.41328 17.1071 5.27734 17.1196 6.03984 17.1313C6.45 17.1376 6.87344 17.1438 7.12891 17.2501C7.40703 17.3649 7.725 17.6696 8.03281 17.9642C8.57188 18.4821 9.18437 19.0688 10 19.0688C10.8156 19.0688 11.4273 18.4821 11.9672 17.9642C12.275 17.6696 12.5922 17.3649 12.8711 17.2501C13.1266 17.1438 13.55 17.1376 13.9602 17.1313C14.7227 17.1196 15.5867 17.1071 16.1875 16.5063C16.7883 15.9056 16.8008 15.0415 16.8125 14.279C16.8187 13.8688 16.825 13.4454 16.9312 13.1899C17.0461 12.9118 17.3508 12.5938 17.6453 12.286C18.1633 11.747 18.75 11.1345 18.75 10.3188C18.75 9.50322 18.1633 8.8915 17.6453 8.35166ZM13.5672 8.88604L9.19219 13.261C9.13414 13.3191 9.06521 13.3652 8.98934 13.3967C8.91346 13.4282 8.83213 13.4443 8.75 13.4443C8.66787 13.4443 8.58654 13.4282 8.51066 13.3967C8.43479 13.3652 8.36586 13.3191 8.30781 13.261L6.43281 11.386C6.37474 11.328 6.32868 11.259 6.29725 11.1832C6.26583 11.1073 6.24965 11.026 6.24965 10.9438C6.24965 10.8617 6.26583 10.7804 6.29725 10.7045C6.32868 10.6287 6.37474 10.5597 6.43281 10.5017C6.55009 10.3844 6.70915 10.3185 6.875 10.3185C6.95712 10.3185 7.03844 10.3347 7.11431 10.3661C7.19018 10.3975 7.25912 10.4436 7.31719 10.5017L8.75 11.9353L12.6828 8.00166C12.7409 7.94359 12.8098 7.89753 12.8857 7.8661C12.9616 7.83467 13.0429 7.8185 13.125 7.8185C13.2071 7.8185 13.2884 7.83467 13.3643 7.8661C13.4402 7.89753 13.5091 7.94359 13.5672 8.00166C13.6253 8.05973 13.6713 8.12867 13.7027 8.20454C13.7342 8.28041 13.7503 8.36173 13.7503 8.44385C13.7503 8.52597 13.7342 8.60729 13.7027 8.68316C13.6713 8.75903 13.6253 8.82797 13.5672 8.88604Z" fill="url(#paint0_linear_147_2090)"/>
<defs>
<linearGradient id="paint0_linear_147_2090" x1="1.25" y1="10.3188" x2="18.75" y2="10.3188" gradientUnits="userSpaceOnUse">
<stop stop-color="#426DC2"/>
<stop offset="1" stop-color="#63ADDC"/>
<stop offset="1" stop-color="#75CFEA"/>
</linearGradient>
</defs>
</svg>
