<svg width="18" height="18" viewBox="0 0 18 18" fill="none" xmlns="http://www.w3.org/2000/svg">
<path d="M8.25 15.5625C4.215 15.5625 0.9375 12.285 0.9375 8.25C0.9375 4.215 4.215 0.9375 8.25 0.9375C12.285 0.9375 15.5625 4.215 15.5625 8.25C15.5625 12.285 12.285 15.5625 8.25 15.5625ZM8.25 2.0625C4.8375 2.0625 2.0625 4.8375 2.0625 8.25C2.0625 11.6625 4.8375 14.4375 8.25 14.4375C11.6625 14.4375 14.4375 11.6625 14.4375 8.25C14.4375 4.8375 11.6625 2.0625 8.25 2.0625Z" fill="#B0B5BB"/>
<path d="M15.1199 17.0925C15.0599 17.0925 14.9999 17.085 14.9474 17.0775C14.5949 17.0325 13.9574 16.7925 13.5974 15.72C13.4099 15.1575 13.4774 14.595 13.7849 14.1675C14.0924 13.74 14.6099 13.5 15.2024 13.5C15.9674 13.5 16.5674 13.7925 16.8374 14.31C17.1074 14.8275 17.0324 15.4875 16.6049 16.125C16.0724 16.9275 15.4949 17.0925 15.1199 17.0925ZM14.6699 15.3675C14.7974 15.7575 14.9774 15.9525 15.0974 15.9675C15.2174 15.9825 15.4424 15.84 15.6749 15.5025C15.8924 15.18 15.9074 14.9475 15.8549 14.8425C15.8024 14.7375 15.5924 14.625 15.2024 14.625C14.9699 14.625 14.7974 14.7 14.6999 14.8275C14.6099 14.955 14.5949 15.15 14.6699 15.3675Z" fill="#B0B5BB"/>
</svg>
