<svg width="25" height="24" viewBox="0 0 25 24" fill="none" xmlns="http://www.w3.org/2000/svg">
<path d="M8.27778 9.29412H16.7222H8.27778ZM8.27778 13.5294H14.6111H8.27778ZM18.8333 4C19.6732 4 20.4786 4.33466 21.0725 4.93037C21.6664 5.52607 22 6.33402 22 7.17647V15.6471C22 16.4895 21.6664 17.2975 21.0725 17.8932C20.4786 18.4889 19.6732 18.8235 18.8333 18.8235H13.5556L8.27778 22V18.8235H6.16667C5.32681 18.8235 4.52136 18.4889 3.9275 17.8932C3.33363 17.2975 3 16.4895 3 15.6471V7.17647C3 6.33402 3.33363 5.52607 3.9275 4.93037C4.52136 4.33466 5.32681 4 6.16667 4H18.8333Z" fill="url(#paint0_linear_777_1373)"/>
<path d="M8.27778 9.29412H16.7222M8.27778 13.5294H14.6111M18.8333 4C19.6732 4 20.4786 4.33466 21.0725 4.93037C21.6664 5.52607 22 6.33402 22 7.17647V15.6471C22 16.4895 21.6664 17.2975 21.0725 17.8932C20.4786 18.4889 19.6732 18.8235 18.8333 18.8235H13.5556L8.27778 22V18.8235H6.16667C5.32681 18.8235 4.52136 18.4889 3.9275 17.8932C3.33363 17.2975 3 16.4895 3 15.6471V7.17647C3 6.33402 3.33363 5.52607 3.9275 4.93037C4.52136 4.33466 5.32681 4 6.16667 4H18.8333Z" stroke="white" stroke-linecap="round" stroke-linejoin="round"/>
<defs>
<linearGradient id="paint0_linear_777_1373" x1="3" y1="13" x2="24.6275" y2="13.5297" gradientUnits="userSpaceOnUse">
<stop stop-color="#426DC2"/>
<stop offset="0.399038" stop-color="#75CFEA"/>
<stop offset="1" stop-color="#33CC99" stop-opacity="0.8"/>
</linearGradient>
</defs>
</svg>
