<svg width="16" height="16" viewBox="0 0 16 16" fill="none" xmlns="http://www.w3.org/2000/svg">
<path d="M7.99984 8.66683C7.79687 8.66446 7.59805 8.72432 7.43013 8.83836C7.26222 8.95241 7.13327 9.11515 7.06065 9.3047C6.98802 9.49424 6.97521 9.70149 7.02394 9.89854C7.07266 10.0956 7.18058 10.273 7.33317 10.4068V11.3335C7.33317 11.5103 7.40341 11.6799 7.52843 11.8049C7.65346 11.9299 7.82303 12.0002 7.99984 12.0002C8.17665 12.0002 8.34622 11.9299 8.47124 11.8049C8.59627 11.6799 8.6665 11.5103 8.6665 11.3335V10.4068C8.81909 10.273 8.92701 10.0956 8.97574 9.89854C9.02446 9.70149 9.01165 9.49424 8.93903 9.3047C8.86641 9.11515 8.73746 8.95241 8.56954 8.83836C8.40163 8.72432 8.20281 8.66446 7.99984 8.66683ZM11.3332 6.00016V4.66683C11.3332 3.78277 10.982 2.93493 10.3569 2.30981C9.73174 1.68469 8.88389 1.3335 7.99984 1.3335C7.11578 1.3335 6.26794 1.68469 5.64281 2.30981C5.01769 2.93493 4.6665 3.78277 4.6665 4.66683V6.00016C4.13607 6.00016 3.62736 6.21088 3.25229 6.58595C2.87722 6.96102 2.6665 7.46973 2.6665 8.00016V12.6668C2.6665 13.1973 2.87722 13.706 3.25229 14.081C3.62736 14.4561 4.13607 14.6668 4.6665 14.6668H11.3332C11.8636 14.6668 12.3723 14.4561 12.7474 14.081C13.1225 13.706 13.3332 13.1973 13.3332 12.6668V8.00016C13.3332 7.46973 13.1225 6.96102 12.7474 6.58595C12.3723 6.21088 11.8636 6.00016 11.3332 6.00016ZM5.99984 4.66683C5.99984 4.1364 6.21055 3.62769 6.58562 3.25262C6.9607 2.87754 7.4694 2.66683 7.99984 2.66683C8.53027 2.66683 9.03898 2.87754 9.41405 3.25262C9.78912 3.62769 9.99984 4.1364 9.99984 4.66683V6.00016H5.99984V4.66683ZM11.9998 12.6668C11.9998 12.8436 11.9296 13.0132 11.8046 13.1382C11.6796 13.2633 11.51 13.3335 11.3332 13.3335H4.6665C4.48969 13.3335 4.32012 13.2633 4.1951 13.1382C4.07008 13.0132 3.99984 12.8436 3.99984 12.6668V8.00016C3.99984 7.82335 4.07008 7.65378 4.1951 7.52876C4.32012 7.40373 4.48969 7.3335 4.6665 7.3335H11.3332C11.51 7.3335 11.6796 7.40373 11.8046 7.52876C11.9296 7.65378 11.9998 7.82335 11.9998 8.00016V12.6668Z" fill="black"/>
</svg>
