<svg width="25" height="24" viewBox="0 0 25 24" fill="none" xmlns="http://www.w3.org/2000/svg">
<path d="M12.5 12C15.2614 12 17.5 9.76142 17.5 7C17.5 4.23858 15.2614 2 12.5 2C9.73858 2 7.5 4.23858 7.5 7C7.5 9.76142 9.73858 12 12.5 12Z" fill="url(#paint0_linear_81_902)"/>
<path d="M12.5 14.5C7.48997 14.5 3.40997 17.86 3.40997 22C3.40997 22.28 3.62997 22.5 3.90997 22.5H21.09C21.37 22.5 21.59 22.28 21.59 22C21.59 17.86 17.51 14.5 12.5 14.5Z" fill="url(#paint1_linear_81_902)"/>
<defs>
<linearGradient id="paint0_linear_81_902" x1="7.5" y1="7" x2="17.5" y2="7" gradientUnits="userSpaceOnUse">
<stop stop-color="#426DC2"/>
<stop offset="1" stop-color="#63ADDC"/>
<stop offset="1" stop-color="#75CFEA"/>
</linearGradient>
<linearGradient id="paint1_linear_81_902" x1="3.40997" y1="18.5" x2="21.59" y2="18.5" gradientUnits="userSpaceOnUse">
<stop stop-color="#426DC2"/>
<stop offset="1" stop-color="#63ADDC"/>
<stop offset="1" stop-color="#75CFEA"/>
</linearGradient>
</defs>
</svg>
