<svg width="49" height="49" viewBox="0 0 49 49" fill="none" xmlns="http://www.w3.org/2000/svg">
<path d="M43.7344 21.8693L40.9861 18.6765C40.4607 18.0703 40.0364 16.9386 40.0364 16.1303V12.695C40.0364 10.553 38.2783 8.79491 36.1363 8.79491H32.701C31.9129 8.79491 30.761 8.37054 30.1548 7.84514L26.962 5.09689C25.5676 3.90463 23.2841 3.90463 21.8696 5.09689L18.697 7.86535C18.0908 8.37054 16.9389 8.79491 16.1508 8.79491H12.6549C10.5129 8.79491 8.75478 10.553 8.75478 12.695V16.1505C8.75478 16.9386 8.33042 18.0703 7.82522 18.6765L5.09718 21.8895C3.92513 23.2839 3.92513 25.5471 5.09718 26.9415L7.82522 30.1545C8.33042 30.7607 8.75478 31.8924 8.75478 32.6805V36.136C8.75478 38.278 10.5129 40.0361 12.6549 40.0361H16.1508C16.9389 40.0361 18.0908 40.4604 18.697 40.9859L21.8898 43.7341C23.2841 44.9264 25.5676 44.9264 26.9822 43.7341L30.175 40.9859C30.7812 40.4604 31.9129 40.0361 32.7212 40.0361H36.1565C38.2985 40.0361 40.0566 38.278 40.0566 36.136V32.7007C40.0566 31.9126 40.4809 30.7607 41.0063 30.1545L43.7546 26.9617C44.9267 25.5673 44.9267 23.2637 43.7344 21.8693ZM32.8222 20.5962L23.0619 30.3566C22.779 30.6395 22.395 30.8011 21.9909 30.8011C21.5867 30.8011 21.2028 30.6395 20.9198 30.3566L16.0296 25.4663C15.4435 24.8803 15.4435 23.9103 16.0296 23.3243C16.6156 22.7383 17.5856 22.7383 18.1716 23.3243L21.9909 27.1435L30.6802 18.4542C31.2662 17.8682 32.2362 17.8682 32.8222 18.4542C33.4082 19.0402 33.4082 20.0102 32.8222 20.5962Z" fill="#00BC78"/>
</svg>
